<?xml version="1.0" encoding="UTF-8"?>
<svg width="383px" height="252px" viewBox="0 0 383 252" version="1.1" xmlns="http://www.w3.org/2000/svg" xmlns:xlink="http://www.w3.org/1999/xlink">
    <title>3powerup</title>
    <g id="Page-1" stroke="none" stroke-width="1" fill="none" fill-rule="evenodd">
        <g id="Frame-2-Copy-2" transform="translate(1, 0)">
            <g id="3powerup" transform="translate(191, 132) scale(-1, 1) translate(-191, -132)">
                <g id="Group" transform="translate(0.0905, 0)" fill-rule="nonzero">
                    <path d="M33.1005914,110.346257 C26.3310788,115.866045 37.4084525,164.317583 37.4084525,164.317583 C37.4084525,164.317583 39.870089,238.221521 45.1010698,241.594713 C50.3320507,244.967905 62.0248513,241.28804 66.6403939,240.674742 C71.2559366,240.061444 67.2557946,194.369796 60.4862933,177.503778 C53.716792,160.637759 58.9477916,136.105308 58.9477916,136.105308 L95.5646688,143.158387 C95.5646688,143.158387 73.4099103,161.864358 74.33303,165.850874 C75.2561498,169.83739 98.9494101,183.330202 103.25729,183.943514 C107.56517,184.556827 115.873169,159.411104 123.258109,142.238401 C130.643048,125.065698 72.7945321,114.026107 72.7945321,114.026107 L64.7941919,99 C64.7941919,99 39.8701115,104.826472 33.1005914,110.346257 Z" id="Path" fill="#2F2E41"></path>
                    <path d="M50.9174153,242.557957 C50.9174153,242.557957 48.6495205,250.361864 50.9174153,250.361864 C53.18531,250.361864 57.3431095,252.591549 63.7688037,251.848321 C70.1944979,251.105093 68.3045742,243.301208 63.7688037,242.186354 C59.2330332,241.071501 60.366973,232.152762 60.366973,232.152762 C58.8550203,229.179849 51.673365,232.89599 51.673365,232.89599 L50.9174153,242.557957 Z" id="Path" fill="#2F2E41"></path>
                    <path d="M82.2684524,181.094685 C82.2684524,181.094685 78.3739228,188.329945 80.5929127,188.805199 C82.8119027,189.280453 86.4013772,192.354826 92.8481429,192.967085 C99.2949085,193.579343 99.1212625,185.472734 94.9226084,183.420693 C90.7239542,181.368652 93.7483661,172.794232 93.7483661,172.794232 C92.9073126,169.54004 85.0825837,171.706693 85.0825837,171.706693 L82.2684524,181.094685 Z" id="Path" fill="#2F2E41"></path>
                    <path d="M37.1095747,43.2670095 C37.7381636,44.4865981 34.909462,59.7314419 34.909462,59.7314419 L37.4238711,64 C37.4238711,64 51.8817288,58.5118868 49.6816161,57.5971871 C47.4815034,56.6824873 47.7957998,45.4013053 47.7957998,45.4013053 C47.7957998,45.4013053 36.4809821,42.047421 37.1095747,43.2670095 Z" id="Path" fill="#FFE0D9"></path>
                    <circle id="Oval" fill="#BA6835" cx="41.909462" cy="30" r="19"></circle>
                    <path d="M43.909462,15.9567466 C44.191537,15.9854914 44.4749356,16 44.7585269,16 C49.2601641,16 52.909462,12.418278 52.909462,8 C52.909462,3.581722 49.2601641,0 44.7585269,0 C44.4749356,0 44.191537,0.014508573 43.909462,0.0432533625 C48.0597225,0.470037876 51.2113194,3.90429536 51.2113194,8 C51.2113194,12.0957046 48.0597225,15.5299621 43.909462,15.9567466 L43.909462,15.9567466 Z" id="Path" fill="#BA6835"></path>
                    <circle id="Oval" fill="#FFE0D9" cx="42.909462" cy="39" r="13"></circle>
                    <path d="M24.6516435,58.7360405 C20.6616781,59.6502782 13.909462,69.4022169 13.909462,69.4022169 L24.6516435,80.0684008 C24.6516435,80.0684008 32.3246222,108.714704 33.2453849,109.933696 C39.2775866,117.919724 66.3926657,100.181773 66.3926657,100.181773 C66.3926657,100.181773 65.3184308,91.4964544 65.9322863,87.2299831 C66.5226628,83.1266242 63.6304076,74.8876992 63.6304076,74.8876992 C63.6304076,74.8876992 73.7587485,70.6212278 71.6103197,66.3547565 C69.4618909,62.0882852 56.2643435,52.3363576 50.7398086,55.6885801 C45.2152736,59.0408025 34.1661775,55.6885801 34.1661775,55.6885801 C34.1661775,55.6885801 28.6416052,57.8218027 24.6516435,58.7360405 Z" id="Path" fill="#5991A7"></path>
                    <path d="M102.909462,120.812462 C102.909462,120.812462 120.11132,135.614164 124.336358,132.593397 C128.561396,129.57263 108.039845,119 108.039845,119 L102.909462,120.812462 Z" id="Path" fill="#FFE0D9"></path>
                    <path d="M24.6385331,115.367621 C27.0007181,118.149197 38.2211023,111.040738 36.7825991,107.883912 C35.344096,104.727085 26.4101592,111.040738 26.4101592,111.040738 C26.4101592,111.040738 22.2763481,112.586046 24.6385331,115.367621 Z" id="Path" fill="#FFE0D9"></path>
                    <path d="M23.9117499,73.6023393 L11.2152494,97.3216394 C11.2152494,97.3216394 25.725521,109.485397 27.539303,109.789475 C29.3530851,110.093553 23.9117278,118 23.9117278,118 C23.9117278,118 7.58765209,106.444439 1.23940001,100.666664 C-5.10885206,94.8888893 13.3313175,69.3450323 13.3313175,69.3450323 L18.7726896,66 L23.9117499,73.6023393 Z" id="Path" fill="#5991A7"></path>
                    <path d="M61.909462,72.9138092 L76.9863763,96.0464404 C76.9863763,96.0464404 100.063311,121.614098 103.140226,122.831595 C106.217141,124.049091 109.909462,118.265936 109.909462,118.265936 L82.2171583,85.0888638 L71.755628,66.52188 L67.7556308,65 L61.909462,72.9138092 Z" id="Path" fill="#5991A7"></path>
                    <ellipse id="Oval" fill="#BA6835" cx="41.909462" cy="23" rx="13" ry="8"></ellipse>
                </g>
                <ellipse id="Oval" fill="#BA6835" fill-rule="nonzero" cx="43.0706261" cy="12.5652929" rx="8.15580301" ry="8.1504557"></ellipse>
                <g id="Group" transform="translate(180.3825, 220.9353) scale(-1, 1) translate(-180.3825, -220.9353)translate(80.8825, 190.4353)" fill-rule="nonzero">
                    <path d="M1.68037533,0 C0.752780604,0.00111078254 0,0.752310548 0,1.6792971 L0,58.9540004 C0,59.8809831 0.752784408,60.6321762 1.68037533,60.6332466 L197.105287,60.6332466 C198.032864,60.6321525 198.785638,59.8809695 198.785638,58.9540004 L198.785638,1.6792736 C198.785638,0.752292002 198.032876,0.00108985798 197.105287,0 L1.68037533,0 Z" id="Path" fill="#E6E6E6"></path>
                    <polygon id="Path" fill="#FFFFFF" points="4.21094729 56.4250641 194.574581 56.4250641 194.574581 4.20822948 4.21094729 4.20822948"></polygon>
                    <path d="M170.54605,45.5924581 C169.550822,45.59128 168.630688,46.1212018 168.132733,46.9823331 C167.634778,47.8434643 167.634778,48.9047625 168.132733,49.7658937 C168.630688,50.6270249 169.550822,51.1569468 170.54605,51.1557686 L181.679935,51.1557686 C183.217208,51.1557686 184.463414,49.9103781 184.463414,48.3741134 C184.463414,46.8378487 183.217208,45.5924581 181.679935,45.5924581 L170.54605,45.5924581 Z" id="Path" fill="#5991A7"></path>
                    <ellipse id="Oval" fill="#5991A7" cx="29.0697048" cy="30.3166448" rx="16.2122964" ry="16.2016669"></ellipse>
                    <polygon id="Path" fill="#3F3D56" points="56.1390339 36.1102845 55.7330325 35.5012901 69.0887527 26.6029227 78.2472968 30.9962982 91.4207867 22.585518 117.625901 33.7565506 138.494214 23.5121294 158.758227 31.7220002 184.220704 9.18450857 184.70626 9.7324077 158.904012 32.5710676 138.522822 24.3134172 117.647063 34.5613631 91.4889761 23.4103039 78.2982429 31.8328333 69.1479286 27.4437657"></polygon>
                    <path d="M35.2616487,23.0684995 L37.7949051,23.0684995 L32.5237652,28.2815697 C30.6077354,30.1688922 27.5302673,30.1688922 25.6142375,28.2815697 L20.3437951,23.0684995 L22.8770555,23.0684995 L26.8812164,27.0287253 C28.0947466,28.2241459 30.0439576,28.2241459 31.2574878,27.0287253 L35.2616487,23.0684995 Z M22.8448379,37.5647941 L20.3115776,37.5647941 L25.6149585,32.3195157 C27.5309888,30.4321979 30.6084521,30.4321979 32.5244824,32.3195157 L37.8278633,37.5647941 L35.294603,37.5647941 L31.2575034,33.5723601 C30.0439732,32.3769395 28.0947623,32.3769395 26.8812321,33.5723601 L22.8448379,37.5647941 Z" id="Shape" fill="#FFFFFF"></path>
                </g>
                <rect id="Rectangle" fill="#E6E6E6" fill-rule="nonzero" x="95.818502" y="230.63216" width="128.527437" height="1"></rect>
                <path d="M139.198638,246.410379 C138.347569,246.40929 137.560681,246.862405 137.134831,247.598788 C136.708981,248.33517 136.708981,249.242746 137.134831,249.979129 C137.560681,250.715512 138.347569,251.168627 139.198638,251.167538 L164.09854,251.167538 C165.411862,251.165852 166.475626,250.10142 166.475626,248.788958 C166.475626,247.476497 165.411862,246.412065 164.09854,246.410379 L139.198638,246.410379 Z" id="Path" fill="#E6E6E6" fill-rule="nonzero"></path>
                <g id="Group" transform="translate(205.8302, 47.4791) scale(-1, 1) translate(-205.8302, -47.4791)translate(106.3302, 16.9791)" fill-rule="nonzero">
                    <path d="M1.68037142,2.27373675e-13 C0.752775794,0.0010951257 0,0.752297903 0,1.67928535 L0,58.9540004 C0,59.8809831 0.752780491,60.6321779 1.68037142,60.6332505 L197.105287,60.6332505 C198.032862,60.6321499 198.785634,59.8809677 198.785634,58.9540004 L198.785634,1.6792736 C198.785634,0.752292635 198.032876,0.00108986227 197.105287,2.27373675e-13 L1.68037142,2.27373675e-13 Z" id="Path" fill="#E6E6E6"></path>
                    <polygon id="Path" fill="#FFFFFF" points="4.21094337 56.4250719 194.574577 56.4250719 194.574577 4.20822948 4.21094337 4.20822948"></polygon>
                    <path d="M170.546046,45.5924601 C169.008772,45.5924601 167.762565,46.8378496 167.762565,48.3741153 C167.762565,49.9103811 169.008772,51.1557706 170.546046,51.1557706 L181.679943,51.1557706 C183.217217,51.1557706 184.463423,49.9103811 184.463423,48.3741153 C184.463423,46.8378496 183.217217,45.5924601 181.679943,45.5924601 L170.546046,45.5924601 L170.546046,45.5924601 Z" id="Path" fill="#5991A7"></path>
                    <rect id="Rectangle" fill="#E6E6E6" x="55.9359901" y="40.1968913" width="128.527437" height="1"></rect>
                    <ellipse id="Oval" fill="#5991A7" cx="29.0697009" cy="30.3166448" rx="16.2122964" ry="16.2016669"></ellipse>
                    <polygon id="Path" fill="#3F3D56" points="56.1389712 36.1099437 55.7329698 35.5009494 69.08869 26.6029736 78.2472341 30.9963491 91.420724 22.5855689 91.5986435 22.6611547 117.625838 33.7566015 138.494151 23.5121803 158.758165 31.7220511 184.220642 9.18416785 184.706197 9.73206697 158.903949 32.5707269 138.522759 24.3134681 117.647393 34.561414 91.4893053 23.4103549 78.2981802 31.8324925 69.1478659 27.4430334"></polygon>
                    <path d="M58.316126,45.9751083 C57.0028047,45.9767924 55.9390403,47.0412243 55.9390403,48.3536856 C55.9390403,49.6661469 57.0028047,50.7305789 58.316126,50.732263 L83.2160284,50.732263 C84.5305422,50.732263 85.5961662,49.6673376 85.5961662,48.3536856 C85.5961662,47.0400336 84.5305422,45.9751083 83.2160284,45.9751083 L58.316126,45.9751083 Z" id="Path" fill="#E6E6E6"></path>
                    <path d="M35.5927788,28.4256057 C35.8958103,26.3981479 34.3511084,25.3082359 32.2389568,24.5811475 L32.9241155,21.8347004 L31.2507668,21.418066 L30.5837175,24.0921388 C30.1444053,23.9826255 29.6927248,23.8793001 29.2438974,23.7769264 L29.9157121,21.0852339 L28.2437938,20.6685995 L27.558161,23.4140989 C27.1941431,23.3312483 26.8367914,23.2493493 26.4899267,23.1631658 L26.4918313,23.1545968 L24.1847874,22.5789268 L23.7397692,24.3644983 C23.7397692,24.3644983 24.9809616,24.6487635 24.9547557,24.6663793 C25.4363335,24.7240042 25.7830183,25.1564434 25.7342508,25.6386868 L24.9538034,28.7674689 C25.0129344,28.7821991 25.0710293,28.8008096 25.1277099,28.8231791 L24.9514167,28.7793746 L23.8569766,33.16236 C23.8083934,33.3168805 23.7001725,33.4456696 23.5562796,33.5202067 C23.4123868,33.5947438 23.2446962,33.608878 23.0903434,33.5594792 C23.1070223,33.5837606 21.8744046,33.2561687 21.8744046,33.2561687 L21.043928,35.1703026 L23.2213729,35.7126444 C23.626367,35.8140782 24.0232647,35.9202469 24.4134885,36.0202355 L23.7211856,38.7985893 L25.3921477,39.2152237 L26.0782586,36.4668693 C26.5342381,36.5906694 26.9773478,36.704945 27.4109345,36.8125548 L26.7276844,39.5480558 L28.400555,39.9646863 L29.0928578,37.1920504 C31.9454484,37.7315293 34.0909775,37.5139284 34.9929275,34.9360376 C35.720489,32.860009 34.9571908,31.6624872 33.4563143,30.881118 C34.5493044,30.6282816 35.372672,29.9097661 35.5923086,28.4255978 L35.5927788,28.4256057 Z M31.7700958,33.7818503 C31.2526557,35.8578788 27.7554008,34.7360603 26.6209366,34.4541761 L27.5395617,30.7739937 C28.6735478,31.0568295 32.3094545,31.616795 31.7705739,33.7818503 L31.7700958,33.7818503 Z M32.2870617,28.3956103 C31.8153595,30.2840294 28.9041573,29.3245715 27.9593264,29.0893626 L28.7921895,25.7515329 C29.7370205,25.9867496 32.7787741,26.425766 32.28705,28.3956103 L32.2870617,28.3956103 Z" id="Shape" fill="#FFFFFF"></path>
                </g>
                <g id="Group" transform="translate(282.7144, 139.2072) scale(-1, 1) translate(-282.7144, -139.2072)translate(183.2144, 108.7072)" fill-rule="nonzero">
                    <path d="M1.68037142,0 C0.752776428,0.0010929681 0,0.752294623 0,1.67928144 L0,58.9539965 C0,59.8809792 0.752780491,60.632174 1.68037142,60.6332466 L197.105287,60.6332466 C198.032864,60.6321503 198.785634,59.8809656 198.785634,58.9539965 L198.785634,1.67926969 C198.785634,0.752289355 198.032875,0.00108770468 197.105287,0 L1.68037142,0 Z" id="Path" fill="#E6E6E6"></path>
                    <polygon id="Path" fill="#FFFFFF" points="4.21094337 56.4250602 194.574577 56.4250602 194.574577 4.20822948 4.21094337 4.20822948"></polygon>
                    <path d="M170.546046,45.5924562 C169.008772,45.5924562 167.762565,46.8378457 167.762565,48.3741114 C167.762565,49.9103772 169.008772,51.1557667 170.546046,51.1557667 L181.679943,51.1557667 C183.217217,51.1557667 184.463423,49.9103772 184.463423,48.3741114 C184.463423,46.8378457 183.217217,45.5924562 181.679943,45.5924562 L170.546046,45.5924562 L170.546046,45.5924562 Z" id="Path" fill="#5991A7"></path>
                    <rect id="Rectangle" fill="#E6E6E6" x="55.9359901" y="40.1968874" width="128.527437" height="1"></rect>
                    <ellipse id="Oval" fill="#5991A7" cx="29.0697009" cy="30.3166448" rx="16.2122964" ry="16.2016669"></ellipse>
                    <polygon id="Path" fill="#3F3D56" points="56.1391122 36.1101121 55.732719 35.5011178 69.0884392 26.603142 78.2473752 30.9965175 91.4204731 22.5857373 91.5987846 22.6613231 117.625588 33.7567699 138.494292 23.5123487 158.758306 31.7218279 184.220783 9.18433625 184.706338 9.73262701 158.90409 32.5708953 138.522901 24.3136365 117.647142 34.5615824 91.4894464 23.4105233 78.2979294 31.832661 69.148007 27.4435934"></polygon>
                    <path d="M58.316126,45.9751083 C57.0016121,45.9751083 55.9359881,47.0400336 55.9359881,48.3536856 C55.9359881,49.6673376 57.0016121,50.732263 58.316126,50.732263 L83.2160284,50.732263 C84.5305422,50.732263 85.5961662,49.6673376 85.5961662,48.3536856 C85.5961662,47.0400336 84.5305422,45.9751083 83.2160284,45.9751083 L58.316126,45.9751083 Z" id="Path" fill="#E6E6E6"></path>
                    <polygon id="Path" fill="#FFFFFF" points="29.0679138 40.9945995 35.6309492 31.7578584 29.0679138 35.6303577 29.0679138 35.6303577 22.5087974 31.7578584 29.0675219 40.9945995 29.0675219 40.9945995 29.0679138 40.9945995 29.0679138 40.9945995"></polygon>
                    <polygon id="Path" fill="#FFFFFF" points="29.0675219 34.3892624 29.0675219 34.3892624 29.0679138 34.3892624 29.0679138 34.3892624 35.6270303 30.5148049 29.0679138 19.6386745 29.0679138 19.6386745 29.0679138 19.6386745 29.0675219 19.6386745 29.0675219 19.6386745 22.5087974 30.5148049"></polygon>
                </g>
            </g>
        </g>
    </g>
</svg>