<?xml version="1.0" encoding="UTF-8"?>
<svg width="600px" height="500px" viewBox="0 0 600 500" version="1.1" xmlns="http://www.w3.org/2000/svg" xmlns:xlink="http://www.w3.org/1999/xlink">
    <title>4piecing</title>
    <defs>
        <path d="M0,0 L600,0 L600,500 L0,500 L0,0 Z" id="path-1"></path>
    </defs>
    <g id="4piecing" stroke="none" fill="none" xlink:href="#path-1">
        <use fill-opacity="0.08" fill="#FFFFFF" fill-rule="evenodd" xlink:href="#path-1"></use>
        <g id="Group" stroke-width="1" fill-rule="evenodd" transform="translate(269, 360) scale(-1, 1) translate(-269, -360)translate(-31, 95)">
            <path d="M123.434921,52.1018016 L75.3994244,52.1018016 C73.3421718,52.0995133 71.6750106,50.4348542 71.6727189,48.3806892 L71.6727189,27.7032291 L71.6727189,27.7032291 C71.6727189,12.4031582 84.0945201,0 99.4175884,0 C114.740657,0 127.162458,12.4031582 127.162458,27.7032291 L127.162458,48.3806892 C127.160165,50.4351781 125.492498,52.0999709 123.434921,52.1018016 L123.434921,52.1018016 Z" id="Path" fill="#2F2E41" fill-rule="nonzero"></path>
            <path d="M167.492547,381.861616 L192.057533,381.861616 C200.702431,381.862075 207.710647,388.85903 207.712025,397.490952 L207.712025,398 L167.493379,398 L167.492547,381.861616 Z" id="Path" fill="#2F2E41" fill-rule="nonzero"></path>
            <path d="M50.3121509,360.376157 L70.9832659,373.627171 L70.9832659,373.627171 C78.2574519,378.291689 80.3681649,387.960597 75.6979933,395.224736 L75.4235428,395.652402 L41.579634,373.956847 L50.3121509,360.376157 Z" id="Path" fill="#2F2E41" fill-rule="nonzero"></path>
            <path d="M201.73732,209.518724 C207.228972,211.044177 212.995173,208.226079 215.157578,202.959884 C217.319982,197.693688 215.194697,191.644909 210.211188,188.881954 L186.342309,161.838494 L166.150235,166.194047 L194.549211,193.968277 C193.135698,196.957543 193.120952,200.418458 194.508941,203.419625 C195.896929,206.420791 198.545052,208.653869 201.740647,209.517893 L201.73732,209.518724 Z" id="Path" fill="#ED9DA0" fill-rule="nonzero"></path>
            <polygon id="Path" fill="#E6E6E6" fill-rule="nonzero" points="123.1954 112.703368 182.696275 187.275091 200.833297 178.960925 130.896648 70.2473108"></polygon>
            <path d="M14.6443936,215.236166 C9.21103601,216.954655 3.34919627,214.343209 1.00072161,209.157918 C-1.34775306,203.972627 0.559667404,197.852953 5.44032085,194.914126 L28.3328218,167.039415 L48.6671111,170.674163 L21.2727898,199.440745 C22.7919938,202.377883 22.9301206,205.836099 21.6499972,208.884711 C20.3698738,211.933324 17.8030212,214.259116 14.6402353,215.236166 L14.6443936,215.236166 Z" id="Path" fill="#ED9DA0" fill-rule="nonzero"></path>
            <polygon id="Path" fill="#ED9DA0" fill-rule="nonzero" points="170.672015 337.890042 184.852791 337.66749 183.147039 385.927353 170.672015 385.927353"></polygon>
            <polygon id="Path" fill="#ED9DA0" fill-rule="nonzero" points="76.7816571 325.090778 92.2723104 335.017619 61.2860138 372.240369 50.7895285 365.513966"></polygon>
            <path d="M71.2618748,177.723599 C71.2618748,177.723599 105.680466,63.5782071 116.741654,62.036117 C127.802842,60.4940269 145.624662,91.3242029 145.624662,91.3242029 C168.731733,120.761764 192.559029,216.118072 192.559029,216.118072 C192.559029,216.118072 152.838552,218.600198 123.802518,234.025251 C94.7664835,249.450304 60.5000873,233.244656 60.5000873,233.244656 L71.2618748,177.723599 Z" id="Path" fill="#E6E6E6" fill-rule="nonzero"></path>
            <path d="M71.2618748,177.723599 C71.2618748,177.723599 105.680466,63.5782071 116.741654,62.036117 C127.802842,60.4940269 141.098723,91.6372713 141.098723,91.6372713 C152.612339,139.15723 192.559861,216.117242 192.559861,216.117242 C192.559861,216.117242 152.839384,218.599367 123.80335,234.02442 C94.7673152,249.449473 60.500919,233.243825 60.500919,233.243825 L71.2618748,177.723599 Z" id="Path" fill="#5991A7" fill-rule="nonzero" opacity="0.1"></path>
            <polygon id="Path" fill="#2F2E41" fill-rule="nonzero" points="99.5003394 143.572574 99.5003394 200.929689 92.739708 284.015709 58.9656593 346.864392 75.0850538 358.360728 121.14118 298.578786 139.354715 239.217867 167.964103 370.624372 189.456907 369.091416 174.534283 186.898911 146.209325 135.615488"></polygon>
            <polygon id="Path" fill="#ED9DA0" fill-rule="nonzero" points="96.0555694 45.9907402 113.936437 45.9907402 113.936437 65.9208222 92.0477599 65.9208222"></polygon>
            <path d="M134.203361,88.0955296 C144.950179,98.8262179 134.970991,110.322554 134.970991,110.322554 L147.252237,137.914922 L98.8932215,150.944213 L81.9937222,75.5420692 L93.5073378,63.2792559 C116.535401,62.5127781 116.544549,62.0336258 116.544549,62.0336258 C120.58313,65.9789516 134.203361,88.0955296 134.203361,88.0955296 Z" id="Path" fill="#5991A7" fill-rule="nonzero"></path>
            <path d="M79.7798212,67.9271171 L79.7798212,67.9271171 C71.5152621,73.9960392 68.9718734,85.2061706 73.8101064,94.2389774 C79.3506804,104.798599 85.3095836,121.157044 82.2365693,139.114048 C76.6760352,171.613369 58.8508891,196.305079 48.9216016,204.234761 C45.4651882,206.995077 45.345428,211.015141 45.851914,213.901681 C47.26575,221.96506 55.0992335,231.115459 60.5150573,232.949857 C60.879753,233.070692 61.2618892,233.130732 61.6461262,233.127795 C70.4443449,233.127795 92.085185,205.151544 116.952066,150.496616 C132.440225,116.457697 121.199396,89.1659411 109.042069,72.2635707 C105.818546,67.7965745 100.938673,64.803522 95.4909251,63.9520239 C90.0431769,63.1005257 84.4807243,64.4614141 80.0442917,67.7311379 L79.7798212,67.9271171 Z" id="Path" fill="#E6E6E6" fill-rule="nonzero"></path>
            <polygon id="Path" fill="#E6E6E6" fill-rule="nonzero" points="102.718896 100.835004 32.8795522 192.33318 14.4572683 184.668403 80.4709376 73.533283"></polygon>
            <ellipse id="Oval" fill="#ED9DA0" fill-rule="nonzero" transform="translate(105.1188, 31.3124) rotate(-61.337) translate(-105.1188, -31.3124)" cx="105.118814" cy="31.3124294" rx="20.3182729" ry="20.3347545"></ellipse>
            <path d="M133.725984,29.7742968 L104.35645,29.7742968 L104.055386,25.5632366 L102.549235,29.7742968 L98.0266232,29.7742968 L97.4294854,21.428575 L94.4446279,29.7742968 L85.689656,29.7742968 L85.689656,29.3590868 C85.7029474,17.2617103 95.5209907,7.45803069 107.63655,7.44430082 L111.777426,7.44430082 C123.893311,7.45757314 133.71186,17.2613865 133.725152,29.3590868 L133.725984,29.7742968 Z" id="Path" fill="#2F2E41" fill-rule="nonzero"></path>
            <path d="M104.112772,55.9607673 C103.89166,55.9607673 103.670987,55.9411082 103.453259,55.9026343 L81.9454854,52.1142579 L81.9454854,16.6204427 L105.621418,16.6204427 L105.03925,17.303048 C96.883911,26.8005625 103.028276,42.1998725 107.416158,50.5339685 C108.076036,51.7795701 107.96256,53.2925742 107.124242,54.4261474 C106.425568,55.3909922 105.305194,55.9619243 104.112772,55.9607673 Z" id="Path" fill="#2F2E41" fill-rule="nonzero"></path>
        </g>
        <g id="Group" stroke-width="1" fill-rule="evenodd" transform="translate(300, 339.5) scale(-1, 1) translate(-300, -339.5)translate(236, 282)">
            <path d="M119.884863,95.3490241 L28.0848223,114.779405 C22.5609318,115.941813 17.1423595,112.395209 15.9724844,106.851548 L0.219733771,31.8123298 C-0.938024048,26.2663064 2.59393979,20.8259156 8.11500508,19.6510044 L99.9150456,0.22062269 C105.438729,-0.941817604 110.857205,2.60443102 112.027383,8.14782593 L127.780134,83.1870439 C128.938298,88.7332907 125.406238,94.1741226 119.884863,95.3490241 L119.884863,95.3490241 Z M8.36325951,20.8331829 C3.49249352,21.8700325 0.376419111,26.669425 1.39715023,31.5624172 L17.1499009,106.601635 C18.1828288,111.49339 22.9649867,114.622194 27.8391743,113.595264 L119.639215,94.1648825 C124.509981,93.128033 127.626055,88.3286403 126.605324,83.4356487 L110.851271,8.39970121 C109.8189,3.50896986 105.038744,0.379937227 100.165255,1.4047638 L8.36325951,20.8331829 Z" id="Shape" fill="#AD6148" fill-rule="nonzero"></path>
            <path d="M94.7336105,25.236594 L48.012522,34.9574019 C47.1639606,35.151728 46.3078901,34.6641768 46.0536533,33.8417824 C45.9411405,33.4244049 46.007228,32.9797333 46.2364488,32.6118389 C46.4656695,32.2439446 46.8379047,31.9851177 47.266036,31.8959344 L94.8256065,22.0000002 C96.6826218,23.0332455 96.095816,24.9544461 94.7336105,25.2378913 L94.7336105,25.236594 Z" id="Path" fill="#E6E6E6" fill-rule="nonzero"></path>
            <path d="M95.7316889,33.2360767 L49.0124427,42.9572789 C48.1638637,43.1519519 47.3076062,42.6642551 47.0536512,41.8416142 C46.9411428,41.4242198 47.0072277,40.9795301 47.2364394,40.6116208 C47.4656512,40.2437114 47.8378717,39.9848741 48.2659861,39.8956873 L95.8256531,30.0000002 C97.6825953,31.0332874 97.0958118,32.954566 95.7336599,33.2380226 L95.7316889,33.2360767 Z" id="Path" fill="#E6E6E6" fill-rule="nonzero"></path>
            <path d="M40.6019564,50.0106251 L26.60738,52.9620541 C25.6556971,53.1618312 24.7220207,52.5529948 24.5204469,51.6011962 L21.0379255,35.0773238 C20.838257,34.1251233 21.4467624,33.1909391 22.3980436,32.9892556 L36.39262,30.0378267 C37.3442321,29.838427 38.2776627,30.4471031 38.4795531,31.3986845 L41.9620745,47.9225568 C42.1617431,48.8747574 41.5532376,49.8089416 40.6019564,50.0106251 L40.6019564,50.0106251 Z" id="Path" fill="#E6E6E6" fill-rule="nonzero"></path>
            <path d="M99.7435942,50.2179831 L28.9966556,64.9576723 C28.1547841,65.1507649 27.3054628,64.6663084 27.0532303,63.8491343 C26.9416045,63.4344061 27.007171,62.9925571 27.2345846,62.6269979 C27.4619983,62.2614387 27.8312988,62.0042548 28.2560547,61.9156377 L99.8348649,47.0000002 C101.677241,48.0266869 101.09506,49.9356926 99.7435942,50.2173386 L99.7435942,50.2179831 Z" id="Path" fill="#E6E6E6" fill-rule="nonzero"></path>
            <path d="M100.743594,58.2154051 L29.9966556,72.9576723 C29.1547842,73.1507649 28.3054628,72.6663084 28.0532303,71.8491343 C27.9416045,71.4344061 28.007171,70.9925571 28.2345846,70.6269979 C28.4619983,70.2614387 28.8312989,70.0042548 29.2560548,69.9156377 L100.834866,55.0000002 C102.67724,56.0266869 102.09506,57.9356926 100.743594,58.2173386 L100.743594,58.2154051 Z" id="Path" fill="#E6E6E6" fill-rule="nonzero"></path>
            <path d="M102.743321,66.2169716 L31.996666,80.9575566 C31.1547394,81.150964 30.3051947,80.6664383 30.0532306,79.8491453 C29.9416042,79.4344641 30.0071711,78.9926659 30.2345859,78.6271481 C30.4620007,78.2616308 30.8313031,78.0044762 31.2560613,77.9158692 L102.834593,63.0000002 C104.677629,64.0265698 104.094794,65.9353576 102.743321,66.2169716 Z" id="Path" fill="#E6E6E6" fill-rule="nonzero"></path>
            <path d="M104.743594,74.2154302 L33.9960037,88.9578122 C33.1543479,89.1505239 32.3054501,88.6661425 32.0532303,87.8492658 C31.9416045,87.434534 32.007171,86.992682 32.2345847,86.6271196 C32.4619983,86.261558 32.8312989,86.0043716 33.2560548,85.9157541 L104.834866,71.0000002 C106.67724,72.0266949 106.09506,73.9357155 104.743594,74.2173637 L104.743594,74.2154302 Z" id="Path" fill="#E6E6E6" fill-rule="nonzero"></path>
            <path d="M105.74229,82.215409 L34.9960036,96.9576924 C34.1542972,97.1507388 33.3051807,96.6662364 33.0532303,95.8491534 C32.9416045,95.4344244 33.007171,94.9925753 33.2345846,94.6270154 C33.4619983,94.2614562 33.8312989,94.0042715 34.2560547,93.9156547 L105.834865,79.0000002 C107.67724,80.0266887 107.095061,81.9356965 105.743594,82.2173427 L105.74229,82.215409 Z" id="Path" fill="#E6E6E6" fill-rule="nonzero"></path>
        </g>
        <path d="M329.937153,202 L210.062847,202 C202.851859,201.99179 197.008258,196.182113 197,189.012988 L197,91.9870121 C197.008258,84.817887 202.851859,79.0082105 210.062847,79 L329.937153,79 C337.148141,79.0082105 342.991742,84.817887 343,91.9870121 L343,189.010505 C342.991742,196.17963 337.148141,201.989306 329.937153,201.997517 L329.937153,202 Z M210.062847,80.5279812 C203.700287,80.5352793 198.544244,85.6613895 198.536903,91.9870121 L198.536903,189.010505 C198.544244,195.336127 203.700287,200.462238 210.062847,200.469536 L329.937153,200.469536 C336.299713,200.462238 341.455756,195.336127 341.463097,189.010505 L341.463097,91.9870121 C341.455756,85.6613895 336.299713,80.5352793 329.937153,80.5279812 L210.062847,80.5279812 Z" id="Shape" fill="#AD6148" fill-rule="nonzero" transform="translate(270, 140.5) scale(-1, 1) translate(-270, -140.5)"></path>
        <path d="M283.968675,107.999574 L223.14731,107.999574 C222.037394,108.021517 221.100013,107.193773 221.002918,106.105992 C220.973053,105.558117 221.173441,105.022252 221.557113,104.623998 C221.940785,104.225745 222.47401,104.000117 223.031804,104 L284.944615,104 C286.984382,105.762677 285.741438,107.997927 283.967838,107.997927 L283.968675,107.999574 Z" id="Path" fill="#CCCCCC" fill-rule="nonzero" transform="translate(253.5, 106) scale(-1, 1) translate(-253.5, -106)"></path>
        <path d="M283.968675,118.999574 L223.14731,118.999574 C222.037394,119.021517 221.100013,118.193773 221.002918,117.105992 C220.973053,116.558117 221.173441,116.022252 221.557113,115.623998 C221.940785,115.225745 222.47401,115.000117 223.031804,115 L284.944615,115 C286.984382,116.762677 285.741438,118.997927 283.967838,118.997927 L283.968675,118.999574 Z" id="Path" fill="#CCCCCC" fill-rule="nonzero" transform="translate(253.5, 117) scale(-1, 1) translate(-253.5, -117)"></path>
        <path d="M315.727378,125 L297.272622,125 C296.018058,124.998641 295.001376,123.994459 295,122.755319 L295,101.244681 C295.001376,100.005541 296.018058,99.001359 297.272622,99 L315.727378,99 C316.981752,99.0018107 317.998167,100.005729 318,101.244681 L318,122.755319 C317.998624,123.994459 316.981942,124.998641 315.727378,125 L315.727378,125 Z" id="Path" fill="#AD6148" fill-rule="nonzero" transform="translate(306.5, 112) scale(-1, 1) translate(-306.5, -112)"></path>
        <path d="M315.988843,140.999574 L224.125114,140.999574 C223.026672,141.021517 222.098979,140.193773 222.002888,139.105992 C221.973324,138.557974 222.171752,138.021979 222.55164,137.623699 C222.931528,137.22542 223.459459,136.999891 224.011631,137 L316.955524,137 C318.974207,138.762678 317.744111,140.997927 315.988843,140.997927 L315.988843,140.999574 Z" id="Path" fill="#5991A7" fill-rule="nonzero" transform="translate(270, 139) scale(-1, 1) translate(-270, -139)"></path>
        <path d="M315.988843,150.999574 L224.125114,150.999574 C223.026672,151.021517 222.098979,150.193773 222.002888,149.105992 C221.973324,148.557974 222.171752,148.021979 222.55164,147.623699 C222.931528,147.22542 223.459459,146.999891 224.011631,147 L316.955524,147 C318.974207,148.764324 317.744111,150.999574 315.988843,150.999574 Z" id="Path" fill="#5991A7" fill-rule="nonzero" transform="translate(270, 149) scale(-1, 1) translate(-270, -149)"></path>
        <path d="M315.988843,161.999558 L224.125114,161.999558 C223.026519,162.02191 222.098587,161.193955 222.002888,160.105984 C221.973331,159.558111 222.171648,159.022248 222.551355,158.623996 C222.931061,158.225744 223.458774,158.000117 224.010802,158 L316.955524,158 C318.974207,159.764317 317.744111,161.999558 315.988843,161.999558 Z" id="Path" fill="#5991A7" fill-rule="nonzero" transform="translate(270, 160) scale(-1, 1) translate(-270, -160)"></path>
        <path d="M315.988843,171.999558 L224.125114,171.999558 C223.026519,172.02191 222.098587,171.193955 222.002888,170.105984 C221.973331,169.558111 222.171648,169.022248 222.551355,168.623996 C222.931061,168.225744 223.458774,168.000117 224.010802,168 L316.955524,168 C318.974207,169.762671 317.744111,171.997911 315.988843,171.997911 L315.988843,171.999558 Z" id="Path" fill="#5991A7" fill-rule="nonzero" transform="translate(270, 170) scale(-1, 1) translate(-270, -170)"></path>
        <path d="M315.988843,182.999574 L224.125114,182.999574 C223.026672,183.021517 222.098979,182.193773 222.002888,181.105992 C221.973324,180.557974 222.171752,180.021979 222.55164,179.623699 C222.931528,179.22542 223.459459,178.999891 224.011631,179 L316.955524,179 C318.974207,180.764324 317.744111,182.999574 315.988843,182.999574 Z" id="Path" fill="#5991A7" fill-rule="nonzero" transform="translate(270, 181) scale(-1, 1) translate(-270, -181)"></path>
        <path d="M303.173342,69 C305.2858,69.0022964 306.997715,70.7227902 307,72.8458333 L307,85.1516667 C306.999086,87.2756861 305.28677,88.9977015 303.173342,89 L235.826658,89 C233.7142,88.9977036 232.002285,87.2772098 232,85.1541667 L232,72.8458333 C232.002285,70.7227902 233.7142,69.0022964 235.826658,69" id="Path" fill="#5991A7" fill-rule="nonzero" transform="translate(269.5, 79) scale(-1, 1) translate(-269.5, -79)"></path>
        <g id="Group" stroke-width="1" fill-rule="evenodd" transform="translate(-134, 426) scale(-1, 1) translate(134, -426)translate(-434, 161)">
            <path d="M132.937153,133 L13.0628468,133 C5.85185924,132.991785 0.00825844012,127.179132 0,120.006333 L0,22.9306347 C0.00825844012,15.7578357 5.85185924,9.94518193 13.0628468,9.93696723 L132.937153,9.93696723 C140.148141,9.94518193 145.991742,15.7578357 146,22.9306347 L146,120.003848 C145.993118,127.177617 140.149115,132.991783 132.937153,133 L132.937153,133 Z M13.0628468,11.4657314 C6.70028716,11.4730333 1.54424417,16.6017704 1.53690345,22.9306347 L1.53690345,120.003848 C1.54424417,126.332712 6.70028716,131.46145 13.0628468,131.468751 L132.937153,131.468751 C139.299713,131.46145 144.455756,126.332712 144.463097,120.003848 L144.463097,22.9306347 C144.455756,16.6017704 139.299713,11.4730333 132.937153,11.4657314 L13.0628468,11.4657314 Z" id="Shape" fill="#AD6148" fill-rule="nonzero"></path>
            <path d="M119.311497,39.0878337 L58.8127826,39.0878337 C57.7086021,39.1103173 56.7759527,38.2774783 56.6797671,37.1830896 C56.6500524,36.6318413 56.8494891,36.0926863 57.2313085,35.692059 C57.6131278,35.2914316 58.1437429,35.0645731 58.6987221,35.0646828 L120.283093,35.0646828 C122.312038,36.8377512 121.075689,39.0861774 119.311497,39.0861774 L119.311497,39.0878337 Z" id="Path" fill="#AD6148" fill-rule="nonzero"></path>
            <path d="M119.311497,49.6434287 L58.8127826,49.6434287 C57.7087555,49.6655016 56.7763467,48.8328775 56.6797671,47.7386845 C56.6500524,47.1874363 56.8494891,46.6482813 57.2313085,46.247654 C57.6131278,45.8470266 58.1437429,45.6201681 58.6987221,45.6202778 L120.283093,45.6202778 C122.312038,47.3933462 121.075689,49.6417724 119.311497,49.6417724 L119.311497,49.6434287 Z" id="Path" fill="#AD6148" fill-rule="nonzero"></path>
            <path d="M45.7341172,55.6533104 L27.2704618,55.6533104 C26.0152927,55.6519412 24.9981204,54.6401557 24.9967439,53.3916338 L24.9967439,31.7181302 C24.9981204,30.4696084 26.0152927,29.4578229 27.2704618,29.4564537 L45.7341172,29.4564537 C46.9890965,29.458278 48.0060011,30.4697972 48.0078352,31.7181302 L48.0078352,53.3916338 C48.0064586,54.6401557 46.9892864,55.6519412 45.7341172,55.6533104 L45.7341172,55.6533104 Z" id="Path" fill="#5991A7" fill-rule="nonzero"></path>
            <path d="M118.734534,114.512388 L100.270878,114.512388 C99.015709,114.511019 97.9985367,113.499233 97.9971602,112.250711 L97.9971602,99.7456522 C97.9985367,98.4971303 99.015709,97.4853449 100.270878,97.4839756 L118.734534,97.4839756 C119.989513,97.4858 121.006417,98.4973192 121.008251,99.7456522 L121.008251,112.250711 C121.006875,113.499233 119.989703,114.511019 118.734534,114.512388 L118.734534,114.512388 Z" id="Path" fill="#AD6148" fill-rule="nonzero"></path>
            <path d="M119.135827,71.2564773 L26.8050615,71.2564773 C25.7010344,71.2785503 24.7686256,70.4459261 24.672046,69.3517332 C24.642339,68.8006286 24.8416641,68.2616043 25.223301,67.8610031 C25.6049378,67.460402 26.1353339,67.2334441 26.6901684,67.2333265 L120.107423,67.2333265 C122.136369,69.0063948 120.900019,71.254821 119.135827,71.254821 L119.135827,71.2564773 Z" id="Path" fill="#CCCCCC" fill-rule="nonzero"></path>
            <path d="M119.135827,81.8153849 L26.8050615,81.8153849 C25.700881,81.8378685 24.7682316,81.0050295 24.672046,79.9106408 C24.642339,79.3595362 24.8416641,78.8205119 25.223301,78.4199107 C25.6049378,78.0193096 26.1353339,77.7923517 26.6901684,77.7922341 L120.107423,77.7922341 C122.136369,79.5669587 120.900019,81.8153849 119.135827,81.8153849 Z" id="Path" fill="#CCCCCC" fill-rule="nonzero"></path>
            <path d="M119.135827,92.3668391 L26.8050615,92.3668391 C25.700881,92.3893228 24.7682316,91.5564838 24.672046,90.462095 C24.642339,89.9109905 24.8416641,89.3719661 25.223301,88.971365 C25.6049378,88.5707638 26.1353339,88.3438059 26.6901684,88.3436883 L120.107423,88.3436883 C122.136369,90.1184129 120.900019,92.3668391 119.135827,92.3668391 Z" id="Path" fill="#CCCCCC" fill-rule="nonzero"></path>
            <path d="M70.7250332,102.924919 L26.8033964,102.924919 C25.6992159,102.947402 24.7665664,102.114563 24.6703809,101.020174 C24.6406739,100.46907 24.839999,99.9300455 25.2216358,99.5294444 C25.6032727,99.1288433 26.1336688,98.9018853 26.6885033,98.9017678 L71.6957967,98.9017678 C73.7247424,100.674836 72.4883926,102.923262 70.7242007,102.923262 L70.7250332,102.924919 Z" id="Path" fill="#CCCCCC" fill-rule="nonzero"></path>
            <path d="M70.7250332,113.478029 L26.8033964,113.478029 C25.6993692,113.500102 24.7669604,112.667478 24.6703809,111.573285 C24.6406739,111.02218 24.839999,110.483156 25.2216358,110.082555 C25.6032727,109.681954 26.1336688,109.454996 26.6885033,109.454878 L71.6957967,109.454878 C73.725575,111.229603 72.4892252,113.478029 70.7250332,113.478029 Z" id="Path" fill="#CCCCCC" fill-rule="nonzero"></path>
            <path d="M106.81146,19.8755908 L39.1902055,19.8755908 C37.0691357,19.8733086 35.3502411,18.1635171 35.3479468,16.0536803 L35.3479468,3.82191047 C35.3502411,1.71207362 37.0691357,0.0022821403 39.1902055,0 L106.81146,0 C108.932529,0.0022821403 110.651424,1.71207362 110.653718,3.82191047 L110.653718,16.0511958 C110.652801,18.1620029 108.933504,19.8733065 106.81146,19.8755908 Z" id="Path" fill="#5991A7" fill-rule="nonzero"></path>
        </g>
        <g id="Group" stroke-width="1" fill-rule="evenodd" transform="translate(-110, 593) scale(-1, 1) translate(110, -593)translate(-410, 328)" fill="#F2F2F2">
            <ellipse id="Oval" fill-rule="nonzero" cx="4.93999473" cy="4.94419102" rx="4.93999473" ry="4.94419102"></ellipse>
            <ellipse id="Oval" fill-rule="nonzero" cx="4.93999473" cy="24.6480637" rx="4.93999473" ry="4.94419102"></ellipse>
            <ellipse id="Oval" fill-rule="nonzero" cx="4.93999473" cy="44.3519363" rx="4.93999473" ry="4.94419102"></ellipse>
            <ellipse id="Oval" fill-rule="nonzero" cx="4.93999473" cy="64.055809" rx="4.93999473" ry="4.94419102"></ellipse>
            <ellipse id="Oval" fill-rule="nonzero" cx="25.5639968" cy="4.94419102" rx="4.93999473" ry="4.94419102"></ellipse>
            <ellipse id="Oval" fill-rule="nonzero" cx="25.5639968" cy="24.6480637" rx="4.93999473" ry="4.94419102"></ellipse>
            <ellipse id="Oval" fill-rule="nonzero" cx="25.5639968" cy="44.3519363" rx="4.93999473" ry="4.94419102"></ellipse>
            <ellipse id="Oval" fill-rule="nonzero" cx="25.5639968" cy="64.055809" rx="4.93999473" ry="4.94419102"></ellipse>
            <ellipse id="Oval" fill-rule="nonzero" cx="46.1879989" cy="4.94419102" rx="4.93999473" ry="4.94419102"></ellipse>
            <ellipse id="Oval" fill-rule="nonzero" cx="46.1879989" cy="24.6480637" rx="4.93999473" ry="4.94419102"></ellipse>
            <ellipse id="Oval" fill-rule="nonzero" cx="46.1879989" cy="44.3519363" rx="4.93999473" ry="4.94419102"></ellipse>
            <ellipse id="Oval" fill-rule="nonzero" cx="46.1879989" cy="64.055809" rx="4.93999473" ry="4.94419102"></ellipse>
            <ellipse id="Oval" fill-rule="nonzero" cx="66.8120011" cy="4.94419102" rx="4.93999473" ry="4.94419102"></ellipse>
            <ellipse id="Oval" fill-rule="nonzero" cx="66.8120011" cy="24.6480637" rx="4.93999473" ry="4.94419102"></ellipse>
            <ellipse id="Oval" fill-rule="nonzero" cx="66.8120011" cy="44.3519363" rx="4.93999473" ry="4.94419102"></ellipse>
            <ellipse id="Oval" fill-rule="nonzero" cx="66.8120011" cy="64.055809" rx="4.93999473" ry="4.94419102"></ellipse>
            <ellipse id="Oval" fill-rule="nonzero" cx="87.4360032" cy="4.94419102" rx="4.93999473" ry="4.94419102"></ellipse>
            <ellipse id="Oval" fill-rule="nonzero" cx="87.4360032" cy="24.6480637" rx="4.93999473" ry="4.94419102"></ellipse>
            <ellipse id="Oval" fill-rule="nonzero" cx="87.4360032" cy="44.3519363" rx="4.93999473" ry="4.94419102"></ellipse>
            <ellipse id="Oval" fill-rule="nonzero" cx="87.4360032" cy="64.055809" rx="4.93999473" ry="4.94419102"></ellipse>
            <ellipse id="Oval" fill-rule="nonzero" cx="108.060005" cy="4.94419102" rx="4.93999473" ry="4.94419102"></ellipse>
            <ellipse id="Oval" fill-rule="nonzero" cx="108.060005" cy="24.6480637" rx="4.93999473" ry="4.94419102"></ellipse>
            <ellipse id="Oval" fill-rule="nonzero" cx="108.060005" cy="44.3519363" rx="4.93999473" ry="4.94419102"></ellipse>
            <ellipse id="Oval" fill-rule="nonzero" cx="108.060005" cy="64.055809" rx="4.93999473" ry="4.94419102"></ellipse>
        </g>
        <g id="Group" stroke-width="1" fill-rule="evenodd" transform="translate(269, 295) scale(-1, 1) translate(-269, -295)translate(-31, 30)" fill="#F2F2F2">
            <ellipse id="Oval" fill-rule="nonzero" cx="4.95706937" cy="4.91449071" rx="4.95706937" ry="4.91449071"></ellipse>
            <ellipse id="Oval" fill-rule="nonzero" cx="4.95706937" cy="24.5" rx="4.95706937" ry="4.91449071"></ellipse>
            <ellipse id="Oval" fill-rule="nonzero" cx="4.95706937" cy="44.0855093" rx="4.95706937" ry="4.91449071"></ellipse>
            <ellipse id="Oval" fill-rule="nonzero" cx="25.6523565" cy="4.91449071" rx="4.95706937" ry="4.91449071"></ellipse>
            <ellipse id="Oval" fill-rule="nonzero" cx="25.6523565" cy="24.5" rx="4.95706937" ry="4.91449071"></ellipse>
            <ellipse id="Oval" fill-rule="nonzero" cx="25.6523565" cy="44.0855093" rx="4.95706937" ry="4.91449071"></ellipse>
            <ellipse id="Oval" fill-rule="nonzero" cx="46.3476435" cy="4.91449071" rx="4.95706937" ry="4.91449071"></ellipse>
            <ellipse id="Oval" fill-rule="nonzero" cx="46.3476435" cy="24.5" rx="4.95706937" ry="4.91449071"></ellipse>
            <ellipse id="Oval" fill-rule="nonzero" cx="46.3476435" cy="44.0855093" rx="4.95706937" ry="4.91449071"></ellipse>
            <ellipse id="Oval" fill-rule="nonzero" cx="67.0429306" cy="4.91449071" rx="4.95706937" ry="4.91449071"></ellipse>
            <ellipse id="Oval" fill-rule="nonzero" cx="67.0429306" cy="24.5" rx="4.95706937" ry="4.91449071"></ellipse>
            <ellipse id="Oval" fill-rule="nonzero" cx="67.0429306" cy="44.0855093" rx="4.95706937" ry="4.91449071"></ellipse>
        </g>
    </g>
</svg>