<?xml version="1.0" encoding="UTF-8"?>
<svg width="2064px" height="428px" viewBox="0 0 2064 428" version="1.1" xmlns="http://www.w3.org/2000/svg" xmlns:xlink="http://www.w3.org/1999/xlink">
    <title>tpl-logo</title>
    <g id="Page-1" stroke="none" stroke-width="1" fill="none" fill-rule="evenodd">
        <g id="Frame-Copy" transform="translate(-91, -100)" fill="#E1EFF3">
            <g id="tpl-logo" transform="translate(91, 100)">
                <path d="M649.519201,214.109024 C664.807296,220.214158 674.462852,235.0315 673.604091,251.069513 C673.798914,258.915139 671.690926,266.652531 667.526595,273.377028 C663.163095,279.845758 656.884864,284.87823 649.519201,287.811301 C640.865825,291.476075 631.495221,293.267131 622.057925,293.060128 L594.59665,293.060128 L594.59665,326.958802 L572.087407,326.958802 L572.087407,209.078898 L622.057925,209.078898 C631.469814,208.908629 640.817185,210.620802 649.519201,214.109024 L649.519201,214.109024 Z M643.441706,268.346902 C648.313982,263.846674 651.072354,257.601141 651.072354,251.069513 C651.072354,244.537886 648.313982,238.292352 643.441706,233.792125 C638.26458,229.636804 630.83653,227.668494 620.932463,227.668494 L594.59665,227.668494 L594.59665,274.470533 L620.932463,274.470533 C630.83653,274.470533 638.26458,272.502223 643.441706,268.346902 L643.441706,268.346902 Z" id="Shape" fill-rule="nonzero"></path>
                <path d="M746.759129,235.979136 L746.759129,256.099639 L741.807096,255.662237 C733.253583,255.662237 726.725903,258.067949 721.998962,262.660673 C717.272021,267.253396 715.021097,274.470533 715.021097,283.437279 L715.021097,326.958802 L693.187132,326.958802 L693.187132,237.072642 L713.895635,237.072642 L713.895635,250.194709 C720.198223,240.790561 731.002659,235.979136 746.759129,235.979136 Z" id="Path" fill-rule="nonzero"></path>
                <path d="M831.168788,245.601985 C838.371746,251.944318 841.973225,261.567167 841.973225,274.251832 L841.973225,326.958802 L821.489814,326.958802 L821.489814,316.023746 C818.826163,320.108958 814.880106,323.252848 810.235193,324.990492 C804.601589,327.235804 798.537544,328.279931 792.452891,328.052307 C786.207992,328.187231 780.001459,327.070508 774.220405,324.771791 C769.425549,322.664798 765.304227,319.340474 762.290506,315.148941 C759.406961,311.026449 757.912528,306.135505 758.01375,301.15207 C757.816466,293.624393 761.225719,286.433952 767.24254,281.68767 C773.545127,276.876245 783.224102,274.470533 796.504555,274.470533 L820.364352,274.470533 L820.364352,273.158326 C820.702761,267.743333 818.560579,262.459889 814.511949,258.724053 C810.685378,255.224835 805.058067,253.475226 797.404925,253.475226 C792.205985,253.509049 787.043403,254.32046 782.09864,255.880938 C777.393694,257.164771 773.02131,259.400684 769.268371,262.441972 L760.714859,247.132893 C766.002744,243.405301 771.955576,240.6617 778.272068,239.040952 C785.281865,236.997811 792.562537,235.966195 799.880941,235.979016 C813.611579,235.979016 823.965831,239.259653 831.168788,245.601985 Z M811.360655,309.244011 C815.555852,306.901768 818.74969,303.177987 820.364352,298.746357 L820.364352,288.467405 L798.080202,288.467405 C785.475026,288.467405 779.397531,292.404025 779.397531,300.277265 C779.251572,303.872196 780.934929,307.306872 783.899379,309.462712 C787.803864,311.826811 792.360166,312.971706 796.95474,312.743229 C801.996328,312.884324 806.980532,311.673654 811.360655,309.244011 L811.360655,309.244011 Z" id="Shape" fill-rule="nonzero"></path>
                <path d="M887.216802,322.147377 C879.820451,318.412431 873.65738,312.727549 869.434501,305.744793 C860.709172,291.061193 860.709172,272.970251 869.434501,258.28665 C873.65738,251.303895 879.820451,245.619012 887.216802,241.884066 C895.197508,237.833462 904.100262,235.8026 913.102431,235.979136 C921.397528,235.866757 929.593013,237.744771 936.962228,241.446664 C943.717806,244.872254 949.162322,250.315509 952.493605,256.974444 L935.836766,266.378592 C933.424459,262.467156 930.012826,259.22773 925.932699,256.974444 C921.892913,254.960999 917.417629,253.91143 912.877339,253.912628 C905.40109,253.683099 898.15673,256.451112 892.844113,261.567167 C887.297162,267.013627 884.357334,274.471884 884.740785,282.125072 C884.440696,289.658971 887.281077,296.99197 892.61902,302.464276 C898.043854,307.549386 905.34188,310.306922 912.877339,310.118816 C917.417629,310.120013 921.892913,309.070445 925.932699,307.057 C930.012826,304.803714 933.424459,301.564287 935.836766,297.652852 L952.493605,307.057 C949.098676,313.672317 943.671114,319.098622 936.962228,322.584779 C929.620162,326.357456 921.405794,328.239798 913.102431,328.052307 C904.103323,328.200902 895.207566,326.171636 887.216802,322.147377 L887.216802,322.147377 Z" id="Path" fill-rule="nonzero"></path>
                <path d="M1028.12466,322.147377 C1025.33403,324.249368 1022.1093,325.741349 1018.67078,326.5214 C1014.94637,327.594924 1011.07543,328.111143 1007.19106,328.052307 C997.061905,328.052307 989.183671,325.646595 983.781452,320.397768 C978.379234,315.148941 975.453033,307.713103 975.453033,297.871553 L975.453033,254.568731 L960.146748,254.568731 L960.146748,237.728745 L975.453033,237.728745 L975.453033,217.17084 L997.061905,217.17084 L997.061905,237.728745 L1021.82207,237.728745 L1021.82207,254.568731 L997.061905,254.568731 L997.061905,297.434151 C996.774766,301.022898 997.992405,304.572095 1000.43829,307.275701 C1002.86219,309.801091 1006.35328,311.093268 1009.89217,310.774919 C1014.25233,310.854057 1018.51999,309.548684 1022.04716,307.057 L1028.12466,322.147377 Z" id="Path" fill-rule="nonzero"></path>
                <path d="M1046.80733,218.701748 C1044.33729,216.337926 1042.95699,213.103482 1042.98076,209.735002 C1042.94717,206.300383 1044.32437,202.994493 1046.80733,200.549555 C1049.52347,198.190324 1053.06998,196.937305 1056.7114,197.050337 C1060.36038,196.890352 1063.92457,198.149622 1066.61546,200.549555 C1069.27299,202.614177 1070.77424,205.77452 1070.66713,209.078898 C1070.73592,212.584435 1069.35795,215.970926 1066.84056,218.483047 C1064.14564,221.040719 1060.4737,222.388507 1056.7114,222.200966 C1053.06998,222.313998 1049.52347,221.060978 1046.80733,218.701748 L1046.80733,218.701748 Z M1045.90696,237.072642 L1067.51583,237.072642 L1067.51583,326.958802 L1045.90696,326.958802 L1045.90696,237.072642 Z" id="Shape" fill-rule="nonzero"></path>
                <path d="M1112.53432,322.147377 C1105.13797,318.412431 1098.9749,312.727549 1094.75202,305.744793 C1086.02669,291.061193 1086.02669,272.970251 1094.75202,258.28665 C1098.9749,251.303895 1105.13797,245.619012 1112.53432,241.884066 C1120.51503,237.833462 1129.41778,235.8026 1138.41995,235.979136 C1146.71505,235.866757 1154.91053,237.744771 1162.27975,241.446664 C1169.03532,244.872254 1174.47984,250.315509 1177.81112,256.974444 L1161.15428,266.378592 C1158.74198,262.467156 1155.33034,259.22773 1151.25022,256.974444 C1147.21043,254.960999 1142.73515,253.91143 1138.19486,253.912628 C1130.71861,253.683099 1123.47425,256.451112 1118.16163,261.567167 C1112.61468,267.013627 1109.67485,274.471884 1110.0583,282.125072 C1109.75821,289.658971 1112.59859,296.99197 1117.93654,302.464276 C1123.36137,307.549386 1130.6594,310.306922 1138.19486,310.118816 C1142.73515,310.120013 1147.21043,309.070445 1151.25022,307.057 C1155.33034,304.803714 1158.74198,301.564287 1161.15428,297.652852 L1177.81112,307.057 C1174.41619,313.672317 1168.98863,319.098622 1162.27975,322.584779 C1154.93768,326.357456 1146.72331,328.239798 1138.41995,328.052307 C1129.42084,328.200902 1120.52508,326.171636 1112.53432,322.147377 L1112.53432,322.147377 Z" id="Path" fill-rule="nonzero"></path>
                <path d="M1281.80382,288.686106 L1209.09897,288.686106 C1210.17037,295.040503 1213.81888,300.712366 1219.22813,304.432587 C1225.04213,308.514752 1232.09297,310.593033 1239.26135,310.337517 C1248.64499,310.624188 1257.71752,307.050568 1264.24661,300.495966 L1275.95142,313.399332 C1271.70469,318.247812 1266.2927,322.003751 1260.19495,324.334388 C1253.32108,326.967696 1245.97265,328.23203 1238.58608,328.052307 C1229.29435,328.245795 1220.09603,326.21804 1211.80008,322.147377 C1204.34201,318.416686 1198.10508,312.735595 1193.79268,305.744793 C1189.60896,298.539832 1187.43628,290.39746 1187.4901,282.125072 C1187.29656,273.7672 1189.47724,265.51914 1193.79268,258.28665 C1197.73293,251.394556 1203.58111,245.712433 1210.67462,241.884066 C1218.27109,237.887374 1226.79704,235.854062 1235.43478,235.979136 C1243.85757,235.857528 1252.16468,237.894194 1259.51967,241.884066 C1266.54493,245.72611 1272.31684,251.409913 1276.17651,258.28665 C1280.26897,265.745656 1282.28629,274.113518 1282.02892,282.562475 C1282.02892,284.093382 1282.02892,286.061693 1281.80382,288.686106 Z M1217.87757,258.942754 C1212.93748,262.868508 1209.78439,268.524303 1209.09897,274.689234 L1261.5455,274.689234 C1259.99776,265.448643 1253.461,257.72784 1244.42733,254.470336 C1235.39367,251.212832 1225.25536,252.920673 1217.87757,258.942754 Z" id="Shape" fill-rule="nonzero"></path>
                <path d="M1393.44967,202.080463 L1393.44967,326.958802 L1372.74116,326.958802 L1372.74116,315.367643 C1369.13845,319.528537 1364.59287,322.822207 1359.46071,324.990492 C1345.89466,329.848371 1330.84545,328.894769 1318.0437,322.366078 C1311.02682,318.611927 1305.25073,312.999838 1301.38686,306.182196 C1297.24454,298.812265 1295.14991,290.520913 1295.30937,282.125072 C1295.09667,273.72354 1297.19463,265.418973 1301.38686,258.067949 C1305.25073,251.250307 1311.02682,245.638218 1318.0437,241.884066 C1325.3987,237.894194 1333.7058,235.857528 1342.12859,235.979136 C1347.8329,235.938394 1353.49068,236.978392 1358.78543,239.040952 C1363.82803,241.048862 1368.30402,244.198067 1371.84079,248.226399 L1371.84079,202.080463 L1393.44967,202.080463 Z M1358.56034,306.619598 C1362.85625,304.447704 1366.32613,300.999729 1368.46441,296.778047 C1373.54656,287.55587 1373.54656,276.475574 1368.46441,267.253396 C1366.32613,263.031714 1362.85625,259.58374 1358.56034,257.411846 C1349.87751,252.741014 1339.33171,252.741014 1330.64888,257.411846 C1326.39819,259.642506 1322.94457,263.074326 1320.74481,267.253396 C1315.92912,276.538819 1315.92912,287.492624 1320.74481,296.778047 C1322.94457,300.957118 1326.39819,304.388938 1330.64888,306.619598 C1339.33171,311.290429 1349.87751,311.290429 1358.56034,306.619598 L1358.56034,306.619598 Z" id="Shape" fill-rule="nonzero"></path>
                <polygon id="Path" fill-rule="nonzero" points="1471.78183 209.078898 1494.29107 209.078898 1494.29107 308.369207 1557.76714 308.369207 1557.76714 326.958802 1471.78183 326.958802"></polygon>
                <path d="M1659.05873,288.686106 L1586.57897,288.686106 C1587.57063,295.013976 1591.13975,300.688527 1596.48303,304.432587 C1602.3123,308.484746 1609.35234,310.559846 1616.51626,310.337517 C1625.96735,310.631713 1635.1123,307.061729 1641.72661,300.495966 L1653.20632,313.399332 C1649.04916,318.341611 1643.60988,322.116494 1637.44985,324.334388 C1630.65456,326.967727 1623.37957,328.232602 1616.06607,328.052307 C1606.77435,328.245795 1597.57603,326.21804 1589.28008,322.147377 C1581.77158,318.486525 1575.5166,312.788984 1571.27268,305.744793 C1566.98646,298.580408 1564.8064,290.410383 1564.97009,282.125072 C1564.81864,273.799622 1566.91399,265.580806 1571.04759,258.28665 C1575.0777,251.386265 1580.99982,245.708014 1588.15461,241.884066 C1595.66955,237.886784 1604.1233,235.852195 1612.68969,235.979136 C1621.18484,235.8499 1629.56654,237.885828 1636.99967,241.884066 C1643.96447,245.730183 1649.66255,251.418153 1653.43142,258.28665 C1657.59228,265.728625 1659.68684,274.095086 1659.50891,282.562475 C1659.54614,284.61262 1659.39549,286.661916 1659.05873,288.686106 L1659.05873,288.686106 Z M1595.13248,258.942754 C1590.34968,262.992861 1587.23243,268.584378 1586.35387,274.689234 L1638.80041,274.689234 C1638.08022,268.63316 1635.12058,263.037389 1630.47199,258.942754 C1620.19211,250.774494 1605.41236,250.774494 1595.13248,258.942754 L1595.13248,258.942754 Z" id="Shape" fill-rule="nonzero"></path>
                <path d="M1744.36876,245.601985 C1751.57171,251.944318 1755.17319,261.567167 1755.17319,274.251832 L1755.17319,326.958802 L1734.68978,326.958802 L1734.68978,316.023746 C1731.92715,320.022726 1728.01243,323.141645 1723.43516,324.990492 C1717.79579,327.216417 1711.73607,328.259799 1705.65286,328.052307 C1699.40796,328.187231 1693.20143,327.070508 1687.42037,324.771791 C1682.59901,322.610363 1678.41794,319.300295 1675.26538,315.148941 C1672.55022,310.962137 1671.14284,306.100198 1671.21372,301.15207 C1670.90924,293.603316 1674.33954,286.368494 1680.44251,281.68767 C1686.44497,276.876245 1696.12395,274.470533 1709.47943,274.470533 L1733.56432,274.470533 L1733.56432,273.158326 C1733.90273,267.743333 1731.76055,262.459889 1727.71192,258.724053 C1723.88535,255.224835 1718.03294,253.475226 1710.3798,253.475226 C1705.18086,253.509049 1700.01828,254.32046 1695.07352,255.880938 C1690.45793,257.216186 1686.16953,259.448311 1682.46834,262.441972 L1673.91483,247.132893 C1679.15036,243.320289 1685.1209,240.568528 1691.47204,239.040952 C1698.48183,236.997811 1705.7625,235.966195 1713.08091,235.979016 C1726.58645,235.979016 1737.1658,239.259653 1744.36876,245.601985 Z M1724.56062,309.244011 C1728.75582,306.901768 1731.94966,303.177987 1733.56432,298.746357 L1733.56432,288.467405 L1711.05508,288.467405 C1698.67499,288.467405 1692.37241,292.404025 1692.37241,300.277265 C1692.23716,303.921018 1694.01801,307.381583 1697.09935,309.462712 C1700.99201,311.853468 1705.55717,313.000589 1710.15471,312.743229 C1715.19379,312.862076 1720.17194,311.652875 1724.56062,309.244011 L1724.56062,309.244011 Z" id="Shape" fill-rule="nonzero"></path>
                <path d="M1874.24709,202.080463 L1874.24709,326.958802 L1853.53858,326.958802 L1853.53858,315.367643 C1849.93587,319.528537 1845.39029,322.822207 1840.25813,324.990492 C1826.69208,329.848371 1811.64287,328.894769 1798.84112,322.366078 C1791.77785,318.67222 1785.98609,313.044914 1782.18428,306.182196 C1778.04196,298.812265 1775.94733,290.520913 1776.10679,282.125072 C1775.89409,273.72354 1777.99205,265.418973 1782.18428,258.067949 C1785.98609,251.20523 1791.77785,245.577925 1798.84112,241.884066 C1806.19612,237.894194 1814.50322,235.857528 1822.92601,235.979136 C1828.63032,235.938394 1834.2881,236.978392 1839.58285,239.040952 C1844.62545,241.048862 1849.10144,244.198067 1852.63821,248.226399 L1852.63821,202.080463 L1874.24709,202.080463 Z M1839.35776,306.619598 C1843.65367,304.447704 1847.12355,300.999729 1849.26183,296.778047 C1854.07752,287.492624 1854.07752,276.538819 1849.26183,267.253396 C1847.12355,263.031714 1843.65367,259.58374 1839.35776,257.411846 C1830.67493,252.741014 1820.12913,252.741014 1811.4463,257.411846 C1807.19561,259.642506 1803.74199,263.074326 1801.54223,267.253396 C1796.72654,276.538819 1796.72654,287.492624 1801.54223,296.778047 C1803.74199,300.957118 1807.19561,304.388938 1811.4463,306.619598 C1820.12913,311.290429 1830.67493,311.290429 1839.35776,306.619598 L1839.35776,306.619598 Z" id="Shape" fill-rule="nonzero"></path>
                <path d="M1989.26931,288.686106 L1916.78955,288.686106 C1917.67952,295.049577 1921.27134,300.760219 1926.69362,304.432587 C1932.50763,308.514752 1939.55846,310.593033 1946.72685,310.337517 C1956.11048,310.624188 1965.18302,307.050568 1971.71211,300.495966 L1983.41691,313.399332 C1979.17018,318.247812 1973.75819,322.003751 1967.66044,324.334388 C1960.79166,326.985176 1953.43953,328.250148 1946.05157,328.052307 C1936.76171,328.228019 1927.56774,326.201224 1919.26557,322.147377 C1911.8251,318.472852 1905.64634,312.773499 1901.48327,305.744793 C1897.12906,298.598119 1894.87158,290.429653 1894.95559,282.125072 C1894.87289,273.779933 1897.04617,265.559887 1901.25818,258.28665 C1905.21938,251.335208 1911.15877,245.640385 1918.3652,241.884066 C1925.87252,237.86784 1934.33152,235.831987 1942.90028,235.979136 C1951.32681,235.82608 1959.64223,237.864784 1966.98516,241.884066 C1974.01042,245.72611 1979.78233,251.409913 1983.642,258.28665 C1987.80286,265.728625 1989.89742,274.095086 1989.7195,282.562475 C1989.7195,284.093382 1989.49441,286.061693 1989.26931,288.686106 Z M1925.34307,258.942754 C1920.40297,262.868508 1917.24989,268.524303 1916.56446,274.689234 L1969.011,274.689234 C1967.46325,265.448643 1960.92649,257.72784 1951.89283,254.470336 C1942.85916,251.212832 1932.72085,252.920673 1925.34307,258.942754 Z" id="Shape" fill-rule="nonzero"></path>
                <path d="M2064,235.979136 L2064,256.099639 L2058.82287,255.662237 C2051.58593,255.30187 2044.51164,257.830024 2039.23983,262.660673 C2034.51289,267.472097 2032.03688,274.470533 2032.03688,283.437279 L2032.03688,326.958802 L2010.428,326.958802 L2010.428,237.072642 L2031.13651,237.072642 L2031.13651,250.194709 C2037.214,240.790561 2048.24353,235.979136 2064,235.979136 Z" id="Path" fill-rule="nonzero"></path>
                <polygon id="Path" fill-rule="nonzero" points="593.021003 113.287808 572.087407 113.287808 572.087407 103.88366 625.434312 103.88366 625.434312 113.287808 604.725809 113.287808 604.725809 164.901272 593.021003 164.901272"></polygon>
                <path d="M674.954645,122.910657 C678.892551,127.059309 680.924024,132.585924 680.581956,138.219736 L680.581956,164.901272 L669.327335,164.901272 L669.327335,139.531942 C669.593604,136.182651 668.457358,132.870703 666.176041,130.346495 C663.981962,128.210143 660.947682,127.094636 657.847621,127.28468 C654.255012,127.054506 650.732567,128.327968 648.168647,130.783897 C645.558188,133.666899 644.259153,137.453348 644.567168,141.281551 L644.567168,164.901272 L633.312547,164.901272 L633.312547,100.165741 L644.567168,100.165741 L644.567168,123.566761 C646.502865,121.694709 648.796894,120.208781 651.319941,119.192738 C654.291701,118.204495 657.407839,117.687578 660.54873,117.66183 C665.882451,117.453989 671.076745,119.346542 674.954645,122.910657 L674.954645,122.910657 Z" id="Path" fill-rule="nonzero"></path>
                <path d="M740.006356,144.99947 L702.415921,144.99947 C702.993818,148.247949 704.850658,151.150224 707.593047,153.091412 C710.581375,155.234691 714.236741,156.315605 717.947298,156.153227 C722.844447,156.398331 727.609294,154.562473 731.002659,151.123102 L737.080155,157.902836 C734.831893,160.342978 732.067781,162.282598 728.976827,163.589065 C725.3873,164.931288 721.568146,165.599216 717.722206,165.557376 C712.888464,165.605739 708.109813,164.557327 703.766476,162.49556 C695.822769,158.369904 690.94738,150.249406 691.1613,141.500252 C691.105352,137.193733 692.273703,132.955743 694.537686,129.25299 C696.620491,125.694056 699.653351,122.747312 703.316291,120.723646 C707.185364,118.687379 711.521332,117.634166 715.921467,117.66183 C720.325154,117.604935 724.668593,118.659962 728.526642,120.723646 C732.173315,122.694935 735.146644,125.659862 737.080155,129.25299 C739.305975,133.041685 740.397475,137.359468 740.231449,141.718953 C740.255119,142.816747 740.1798,143.914445 740.006356,144.99947 L740.006356,144.99947 Z M706.91777,129.471691 C704.396011,131.594135 702.788849,134.561039 702.415921,137.782333 L729.652105,137.782333 C729.268043,134.626054 727.657691,131.731492 725.150256,129.690392 C722.631148,127.47078 719.320065,126.293804 715.921467,126.409875 C712.646378,126.389648 709.465046,127.471499 706.91777,129.471691 L706.91777,129.471691 Z" id="Shape" fill-rule="nonzero"></path>
                <path d="M394.939669,299.402461 L331.91379,279.500659 C315.388051,313.293317 282.318265,336.608742 244.127744,341.393076 L244.127744,405.691205 C310.913749,400.486637 369.112448,359.469545 394.939669,299.402461 L394.939669,299.402461 Z" id="Path" fill-rule="nonzero"></path>
                <path d="M175.474554,135.814023 C209.326903,118.04333 250.116754,118.04333 283.969103,135.814023 L322.910093,83.9818579 C265.745837,49.8664301 193.69782,49.8664301 136.533565,83.9818579 L175.474554,135.814023 Z" id="Path" fill-rule="nonzero"></path>
                <path d="M55.5002917,272.502223 L118.526171,252.819122 C117.182905,246.117947 116.504519,239.307003 116.500339,232.479918 C116.502711,202.178003 129.36951,173.218928 152.064942,152.435308 L113.123953,100.384442 C62.0488372,142.609761 39.7675746,209.16231 55.5002917,272.502223 L55.5002917,272.502223 Z" id="Path" fill-rule="nonzero"></path>
                <path d="M64.5039887,299.402461 C90.3312097,359.469545 148.529908,400.486637 215.315913,405.691205 L215.315913,341.393076 C177.125392,336.608742 144.055606,313.293317 127.529868,279.500659 L64.5039887,299.402461 Z" id="Path" fill-rule="nonzero"></path>
                <path d="M342.718226,232.479918 C342.677487,239.295476 342.075317,246.09693 340.917487,252.819122 L403.943366,272.502223 C419.195493,209.181264 396.994725,142.869147 346.319705,100.384442 L307.378715,152.435308 C329.991151,173.256614 342.774345,202.210772 342.718226,232.479918 L342.718226,232.479918 Z" id="Path" fill-rule="nonzero"></path>
                <path d="M144.861984,232.479918 C144.861984,186.943863 182.855031,150.029596 229.721829,150.029596 C276.588627,150.029596 314.581673,186.943863 314.581673,232.479918 C314.581673,278.015974 276.588627,314.93024 229.721829,314.93024 C182.855031,314.93024 144.861984,278.015974 144.861984,232.479918 Z" id="Path" fill-rule="nonzero"></path>
                <path d="M232.422938,0.000627904498 C238.695288,-0.0450632069 244.713783,2.40460932 249.079777,6.78036262 C255.95455,13.3247508 258.0583,23.2658725 254.398742,31.9147469 C250.739184,40.5636213 242.04734,46.1925727 232.422938,46.1468441 L229.496736,46.1468441 C223.234647,46.1422166 217.235401,43.7003793 212.839897,39.3668295 C205.965124,32.8224412 203.861374,22.8813196 207.520932,14.2324452 C211.18049,5.58357074 219.872334,-0.0453806182 229.496736,0.000627904498 L232.422938,0.000627904498 Z" id="Path" fill-rule="nonzero"></path>
                <path d="M24.4375371,143.031012 C26.9553604,143.039612 29.4581953,143.408061 31.8655871,144.124666 L32.5408644,144.124666 C38.2478134,146.213686 42.9713374,150.258584 45.8213174,155.497124 C48.5524313,161.035363 48.9561159,167.389364 46.9467796,173.211915 L46.2715023,175.617627 C43.0603356,185.041989 33.9797122,191.394396 23.7622598,191.364216 C21.2459049,191.33758 18.7457104,190.969519 16.3342098,190.270602 C10.3233556,188.385427 5.36431714,184.199095 2.60357184,178.679443 C-0.313434552,173.278698 -0.802233765,166.946429 1.25301729,161.183353 L2.15338699,158.55894 C5.35732524,149.255155 14.3401365,142.995858 24.4375371,143.031012 L24.4375371,143.031012 Z" id="Path" fill-rule="nonzero"></path>
                <path d="M100.293684,379.22837 C105.415566,379.179498 110.407181,380.796126 114.474507,383.821093 L116.275246,385.1333 C121.534834,388.623944 125.046068,394.098267 125.954221,400.223677 C127.079866,406.889373 125.127883,413.698511 120.617736,418.839034 C116.107589,423.979558 109.496789,426.93001 102.544609,426.905214 C97.4912855,426.9561 92.5702266,425.336617 88.5888782,422.31249 L86.3379539,420.781582 C81.2033573,417.211977 77.7891563,411.762196 76.8840721,405.691205 C76.0007327,399.682282 77.5322337,393.573587 81.1608282,388.632518 C85.6713953,382.760309 92.7524548,379.279839 100.293684,379.22837 L100.293684,379.22837 Z" id="Path" fill-rule="nonzero"></path>
                <path d="M357.124141,380.540576 C364.665371,380.592046 371.74643,384.072516 376.256997,389.944724 L376.48209,389.944724 C384.039512,400.291811 381.631953,414.619405 371.079872,422.093789 L368.828947,423.624697 C364.758038,426.456636 359.879971,427.985526 354.873217,427.998719 C347.246415,428.078003 340.076981,424.472144 335.740361,418.37587 C332.009391,413.397301 330.470623,407.180931 331.463605,401.098481 C332.50586,395.080381 335.993483,389.721672 341.142579,386.226805 L343.393503,384.695897 C347.408271,381.945322 352.211897,380.491594 357.124141,380.540576 L357.124141,380.540576 Z" id="Path" fill-rule="nonzero"></path>
                <path d="M435.681398,145.218171 C446.020043,145.248751 455.138312,151.80468 458.19064,161.402054 L459.09101,163.807767 C463.081189,175.942749 456.245794,188.93237 443.784725,192.895015 C441.434158,193.495014 439.012017,193.789185 436.581767,193.76982 C426.197728,193.937012 416.941674,187.43695 413.847432,177.804638 L413.172155,175.398926 C411.116904,169.63585 411.605703,163.303581 414.52271,157.902836 C417.376868,152.369717 422.408937,148.19025 428.47844,146.311677 C430.812927,145.613014 433.238825,145.24473 435.681398,145.218171 Z" id="Path" fill-rule="nonzero"></path>
            </g>
        </g>
    </g>
</svg>