<?xml version="1.0" encoding="UTF-8"?>
<svg width="380px" height="248px" viewBox="0 0 380 248" version="1.1" xmlns="http://www.w3.org/2000/svg" xmlns:xlink="http://www.w3.org/1999/xlink">
    <title>1mastery</title>
    <g id="Page-1" stroke="none" stroke-width="1" fill="none" fill-rule="evenodd">
        <g id="1mastery" transform="translate(-1, -1)">
            <path d="M17.8556761,219.186601 C17.9350269,219.186601 17.9850076,219.186601 18.0020114,219.183602 L27.4916485,219.183602 L27.4916485,217.826546 L17.9674886,217.826546 C17.7469551,217.834043 13.2481757,217.957503 9.10492909,213.0781 C2.92793121,205.806479 -2.14485359,187.80587 8.76794572,143.343921 C23.4416649,83.558486 11.2030885,30.7417707 5.260021,10.8082941 C4.66631683,8.80887195 5.0764721,6.65500733 6.36735772,4.99329293 C7.65824334,3.33157853 9.67955708,2.35549346 11.8244982,2.35805956 L153.543008,2.35805956 C155.728461,2.36125473 157.781289,3.37540926 159.069226,5.08816611 C160.667132,7.22037003 162.642607,10.5991609 164.425464,15.7667915 C165,16 165,16 165.883881,15.7273406 C164.00934,10.1739858 161.899867,6.55658383 160.200748,4.287928 C158.648744,2.22476576 156.175396,1.00339772 153.542493,0.999676824 L11.8229524,0.999676824 C9.23788384,0.999676824 6.80211286,2.17449011 5.24693987,4.17761011 C3.69176688,6.1807301 3.19828862,8.77671784 3.91466385,11.1861705 C9.82681548,31.0156811 22.0004685,83.5589859 7.40506956,143.030523 C-3.66127874,188.115769 1.6588333,206.509749 8.07027679,213.997299 C12.2990574,218.936682 16.9585996,219.186601 17.8556761,219.186601 Z" id="Path" fill="#E6E6E6" fill-rule="nonzero"></path>
            <path d="M43.3901528,233.956994 C43.4695036,233.956994 43.5194843,233.956994 43.5364881,233.953995 L53.0261252,233.953995 L53.0261252,232.596939 L43.5024806,232.596939 C43.2809166,232.603437 38.7831676,232.727896 34.6399211,227.848493 C28.4629232,220.576873 23.3901384,202.576264 34.3029377,158.114314 C48.9766569,98.3288797 36.7380805,45.5121644 30.795013,25.5786878 C30.2013088,23.5792656 30.6114641,21.425401 31.9023497,19.7636866 C33.1932353,18.1019722 35.2145491,17.1258871 37.3594902,17.1284532 L179.078,17.1284532 C181.263358,17.1311395 183.316359,18.1447278 184.604733,19.8570603 C186.187309,21.9688087 188.140245,25.3033405 189.909606,30.387451 C191,31 191,31 191.379289,30.3763246 C189.514941,24.8907468 187.423629,21.3091083 185.736771,19.0568222 C184.184767,16.9936599 181.711419,15.7722919 179.078515,15.7684356 L37.3579444,15.7684356 C34.7725143,15.7684356 32.3363803,16.9434476 30.7811358,18.9469545 C29.2258914,20.9504614 28.7326942,23.5469105 29.4496558,25.9565642 C35.3618075,45.7860748 47.5354604,98.3293795 32.9400615,157.800917 C21.8737132,202.886162 27.1938253,221.280143 33.6052688,228.767692 C37.8340493,233.707076 42.4935915,233.956994 43.3901528,233.956994 Z" id="Path" fill="#CCCCCC" fill-rule="nonzero"></path>
            <path d="M68.9251448,248.727888 C69.0044956,248.727888 69.0544763,248.727888 69.0714801,248.724889 L208.605266,248.724889 C211.333111,248.727888 213.88494,247.418486 215.416847,245.22899 C216.948754,243.039494 217.261167,240.255415 216.250769,237.797465 C211.187775,225.52698 204.371333,196.088614 215.598959,136.789021 C228.857245,66.766936 216.987598,41.4607177 211.270732,33.8302149 C209.718728,31.7670526 207.24538,30.5456846 204.612477,30.5422871 L62.8929364,30.5422871 C60.3081087,30.5398748 57.8725797,31.7167347 56.3174544,33.7195968 C54.762329,35.7224588 54.2686634,38.318139 54.9846478,40.7274577 C60.8967994,60.5569683 73.0704524,113.100273 58.4750535,172.57181 C47.4087052,217.657056 52.728302,236.051036 59.1402607,243.538586 C63.3690413,248.47797 68.0285835,248.727888 68.9251448,248.727888 Z M204.611962,31.8988469 C206.79787,31.90184 208.851169,32.9162235 210.13921,34.6294533 C215.751993,42.1180026 227.385133,67.0393469 214.224747,136.5461 C203.498474,193.194561 208.70059,223.150258 214.953847,238.304299 C215.809853,240.335451 215.552769,242.648332 214.27009,244.455786 C212.998879,246.279581 210.876846,247.372409 208.607327,247.372409 L69.0374726,247.372409 C68.8169391,247.380829 64.3181596,247.501789 60.174913,242.621886 C53.9979152,235.350266 48.9251304,217.349657 59.8379297,172.887707 C74.5116489,113.102272 62.2730725,60.2855571 56.330005,40.3520805 C55.7363008,38.3526583 56.1464561,36.1987937 57.4373417,34.5370793 C58.7282273,32.8753649 60.749541,31.8988469 62.8944822,31.9018459 L204.611962,31.8988469 Z" id="Shape" fill="#3F3D56" fill-rule="nonzero"></path>
            <path d="M190.726598,91.6208024 L79.4916859,91.6208024 C76.4006535,91.6208024 73.8948766,89.1900563 73.8948766,86.1915791 C73.8948766,83.1931019 76.4006535,80.7623559 79.4916859,80.7623559 L190.726598,80.7623559 C193.81763,80.7623559 196.323407,83.1931019 196.323407,86.1915791 C196.323407,89.1900563 193.81763,91.6208024 190.726598,91.6208024 L190.726598,91.6208024 Z" id="Path" fill="#5991A7" fill-rule="nonzero"></path>
            <path d="M190.726598,114.694751 L79.4916859,114.694751 C76.4006535,114.694751 73.8948766,112.264005 73.8948766,109.265528 C73.8948766,106.267051 76.4006535,103.836305 79.4916859,103.836305 L190.726598,103.836305 C193.81763,103.836305 196.323407,106.267051 196.323407,109.265528 C196.323407,112.264005 193.81763,114.694751 190.726598,114.694751 Z" id="Path" fill="#CCCCCC" fill-rule="nonzero"></path>
            <path d="M190.726598,137.7687 L79.4916859,137.7687 C76.4006535,137.7687 73.8948766,135.337954 73.8948766,132.339477 C73.8948766,129.341 76.4006535,126.910254 79.4916859,126.910254 L190.726598,126.910254 C193.81763,126.910254 196.323407,129.341 196.323407,132.339477 C196.323407,135.337954 193.81763,137.7687 190.726598,137.7687 L190.726598,137.7687 Z" id="Path" fill="#CCCCCC" fill-rule="nonzero"></path>
            <path d="M199.121297,160.842149 L87.8863848,160.842149 C84.7953523,160.842149 82.2895754,158.411403 82.2895754,155.412926 C82.2895754,152.414449 84.7953523,149.983703 87.8863848,149.983703 L199.121297,149.983703 C202.212329,149.983703 204.718106,152.414449 204.718106,155.412926 C204.718106,158.411403 202.212329,160.842149 199.121297,160.842149 L199.121297,160.842149 Z" id="Path" fill="#CCCCCC" fill-rule="nonzero"></path>
            <path d="M199.121297,183.916098 L87.8863848,183.916098 C85.8868372,183.916098 84.0391791,182.881294 83.0394053,181.201486 C82.0396314,179.521679 82.0396314,177.452071 83.0394053,175.772263 C84.0391791,174.092455 85.8868372,173.057651 87.8863848,173.057651 L199.121297,173.057651 C202.212329,173.057651 204.718106,175.488398 204.718106,178.486875 C204.718106,181.485352 202.212329,183.916098 199.121297,183.916098 L199.121297,183.916098 Z" id="Path" fill="#CCCCCC" fill-rule="nonzero"></path>
            <path d="M131.96113,68.5468535 L79.4916859,68.5468535 C76.4006535,68.5468535 73.8948766,66.1161075 73.8948766,63.1176303 C73.8948766,60.1191531 76.4006535,57.6884071 79.4916859,57.6884071 L131.96113,57.6884071 C135.052162,57.6884071 137.557939,60.1191531 137.557939,63.1176303 C137.557939,66.1161075 135.052162,68.5468535 131.96113,68.5468535 Z" id="Path" fill="#5991A7" fill-rule="nonzero"></path>
            <path d="M176.76147,121.946144 C177.657874,118.268303 181.868354,117.0627 185.311248,117.197449 C187.48627,117.339793 189.643757,117.670722 191.757831,118.186265 C193.969805,118.665811 196.160514,119.233736 198.341818,119.836141 C202.33883,120.940683 206.29413,122.276674 210.356982,123.140253 C213.739352,123.859176 217.414525,124.28086 220.78749,123.288477 C224.029593,122.33414 226.780145,119.991895 227.662645,116.753571 C228.494027,113.701915 227.352666,110.364908 224.301131,108.970261 C221.520316,107.698473 218.003404,108.345266 216.624038,111.221353 C215.070053,114.464432 216.624038,118.000788 219.085059,120.347789 C220.484557,121.621963 222.017551,122.750992 223.65909,123.716501 C225.324997,124.817031 227.179298,125.622165 229.135659,126.094416 C232.3475,126.759439 236.173982,125.779738 237.830203,122.804967 C238.198412,122.131763 238.419873,121.392381 238.480832,120.632743 C238.578978,119.598746 236.912534,119.605087 236.815206,120.632743 C236.534261,123.594039 232.956007,124.980759 230.279882,124.656174 C228.473457,124.366094 226.748419,123.717215 225.213075,122.750275 C223.731304,121.912972 222.327192,120.952798 221.016498,119.880529 C218.746863,117.978197 216.619131,114.844502 218.143671,111.874884 C219.384814,109.457337 222.620783,109.480324 224.588618,111.040236 C226.97194,112.929489 226.547048,116.358045 224.97507,118.601211 C223.234607,121.085339 220.079609,122.128451 217.104955,122.238627 C213.874303,122.360694 210.667779,121.641771 207.57903,120.791667 C203.741097,119.735476 199.941195,118.553256 196.084451,117.558892 C193.894968,116.994533 191.688719,116.484867 189.459569,116.088548 C187.352017,115.638484 185.187318,115.493311 183.035887,115.657749 C179.559869,116.046935 176.012286,118.007525 175.156368,121.519705 C174.911002,122.529922 176.516104,122.961117 176.762697,121.948918 L176.76147,121.946144 Z" id="Path" fill="#3F3D56" fill-rule="nonzero"></path>
            <path d="M237.963927,122.327403 C237.533285,121.979945 237.360472,121.415611 237.525823,120.89674 C237.691173,120.377868 238.162249,120.006252 238.720064,119.954641 C241.748383,119.671153 244.804639,119.974686 247.710682,120.847548 L277.313271,129.707657 C278.355705,130.019653 279.147203,130.846913 279.389616,131.877816 C279.63203,132.908718 279.28853,133.986646 278.48851,134.705552 C277.68849,135.424459 276.553492,135.675126 275.511058,135.36313 L245.908878,126.504606 C243.000782,125.63693 240.299989,124.216939 237.963927,122.327403 L237.963927,122.327403 Z" id="Path" fill="#3F3D56" fill-rule="nonzero"></path>
            <g id="Group" transform="translate(271.3254, 6)" fill-rule="nonzero">
                <path d="M33.6745644,30.4641561 C33.6745644,30.4641561 39.6479532,42.6520959 38.6924435,46.3313685 C38.1332014,48.567813 38.3861676,50.9211116 39.4092833,53 L50.4001362,52.5397913 L60.6745644,43.1119051 C60.6745644,43.1119051 45.1444174,32.7651995 46.0995121,27.7045019 C47.0546068,22.6438044 33.6745644,30.4641561 33.6745644,30.4641561 Z" id="Path" fill="#ED9DA0"></path>
                <path d="M60.4116952,49 L65.6745644,77.0298149 C65.6745644,77.0298149 65.6745644,102.346573 64.0955207,102.798946 C62.5164771,103.251318 55.6745644,102.798946 55.6745644,102.798946 L55.6745644,74.3175435 L57.7802606,49.4523725 L60.4116952,49 Z" id="Path" fill="#D4A64B"></path>
                <path d="M60.4116952,49 L65.6745644,77.0298149 C65.6745644,77.0298149 65.6745644,102.346573 64.0955207,102.798946 C62.5164771,103.251318 55.6745644,102.798946 55.6745644,102.798946 L55.6745644,74.3175435 L57.7802606,49.4523725 L60.4116952,49 Z" id="Path" fill="#000000" opacity="0.1"></path>
                <polygon id="Path" fill="#ED9DA0" points="88.6745644 215.019654 92.2874423 229 97.7067591 224.941038 102.674564 213.666667 96.3522241 206"></polygon>
                <path d="M102.953625,212 C102.953625,212 96.8598703,216.608737 96.8598703,221.218274 C96.8598703,221.218274 93.5788681,226.288205 89.8283952,225.827011 L89.8283952,235.506079 C89.8283952,235.506079 78.1091342,241.497597 87.0156422,242.880378 C95.9221503,244.263159 102.484969,233.20131 102.484969,233.20131 C102.484969,233.20131 110.922821,219.835093 109.516444,217.991518 C108.110068,216.147943 102.953625,212 102.953625,212 Z" id="Path" fill="#090814"></path>
                <path d="M60.1760185,101.12523 C60.1760185,101.12523 69.0330971,110.611708 64.8539819,125.256871 C64.8539819,125.256871 60.2111032,158.211072 75.0680732,170.568699 C89.9250432,182.926325 99.6745644,209.930705 99.6745644,209.930705 L88.531736,220 C88.531736,220 76.4609772,192.996018 63.9252449,182.470726 C51.3895126,171.945435 49.9970119,160.043407 49.9970119,160.043407 L49.9970119,118.393864 L47.6745644,101 L60.1760185,101.12523 Z" id="Path" fill="#090814"></path>
                <path d="M60.1760185,101.12523 C60.1760185,101.12523 69.0330971,110.611708 64.8539819,125.256871 C64.8539819,125.256871 60.2111032,158.211072 75.0680732,170.568699 C89.9250432,182.926325 99.6745644,209.930705 99.6745644,209.930705 L88.531736,220 C88.531736,220 76.4609772,192.996018 63.9252449,182.470726 C51.3895126,171.945435 49.9970119,160.043407 49.9970119,160.043407 L49.9970119,118.393864 L47.6745644,101 L60.1760185,101.12523 Z" id="Path" fill="#6F6F6F" opacity="0.1"></path>
                <polygon id="Path" fill="#ED9DA0" points="48.2686628 225 43.6745644 230.041401 45.5126826 234.166401 51.0262393 236 60.6745644 232.333599 59.2961752 226.833599"></polygon>
                <path d="M60.6745644,231.017297 C60.6745644,231.017297 49.7668002,236.496161 47.0393473,234.213169 C45.4339405,232.909485 44.4510054,231.025075 44.3200837,229 C44.3200837,229 38.8586265,229.647978 35.2225687,231.928987 C31.5865108,234.209996 27.1118666,235.003115 24.3148045,236.951014 C21.5177424,238.898914 21.5877611,242.429481 30.2233985,242.885921 C38.859036,243.342361 60.6741549,242.429085 60.6741549,240.146489 L60.6745644,231.017297 Z" id="Path" fill="#090814"></path>
                <path d="M30.3672905,107.72763 C30.3672905,107.72763 24.3551733,134.092612 34.9918725,164.09733 C34.9918725,164.09733 40.079234,180.917977 42.391525,185.917183 C44.703816,190.91639 47.0169104,226.375183 46.0929582,227.738998 C46.0929582,227.738998 53.4926107,233.648336 59.9675075,229.557286 C59.9675075,229.557286 59.5047279,208.646379 60.4302871,206.828485 C61.3558462,205.010592 62.2806019,189.099681 56.7304608,175.916795 C51.1803197,162.733909 55.8065085,130.913273 55.8065085,130.913273 C55.8065085,130.913273 66.9019701,114.547494 58.5787671,105 L30.3672905,107.72763 Z" id="Path" fill="#090814"></path>
                <ellipse id="Oval" fill="#ED9DA0" cx="37.1745644" cy="21" rx="13.5" ry="13"></ellipse>
                <path d="M61.6745644,103.487965 C61.6745644,103.487965 57.955645,108.923638 55.1662536,106.205801 C53.1997892,104.289781 40.6111866,108.452305 33.3477859,111.074931 C30.3072362,112.171036 28.2014637,113 28.2014637,113 C28.2014637,113 28.0015869,106.722379 27.4112438,98.7726671 C26.7324704,89.6501305 25.5424969,78.3168926 23.5526126,71.7831468 C19.8336933,59.5532744 29.1313954,54.5708359 29.1313954,54.5708359 C29.1313954,54.5708359 37.0348057,45.5124289 36.5712531,44.1531171 C36.1077005,42.7938052 57.4904772,36 57.4904772,36 C59.8147009,36.4532351 61.6745644,56.835831 61.6745644,56.835831 C61.6745644,56.835831 57.4904772,73.1420652 55.1662536,83.1073357 C52.84203,93.0726063 61.6745644,103.487965 61.6745644,103.487965 Z" id="Path" fill="#D4A64B"></path>
                <path d="M21.4976108,104 C21.4976108,104 10.9158675,114.167982 5.62499589,116.941214 C0.334124252,119.714446 -2.55195766,128.957482 1.77716521,130.806571 C6.10628807,132.65566 15.7258648,120.638589 15.7258648,120.638589 L29.6745644,109.546063 L21.4976108,104 Z" id="Path" fill="#ED9DA0"></path>
                <path d="M24.258067,12.2743351 C23.0754251,12.379453 22.3995724,13.8675543 22.7814713,14.9909524 C23.1633703,16.1143506 24.2600749,16.8489727 25.3804725,17.2413596 C26.5008701,17.6337465 27.6987719,17.7685543 28.8203742,18.1577315 C29.9358489,18.5653479 30.9708305,19.1658938 31.8779754,19.9318981 C35.0733172,22.5466072 36.9659458,26.5306584 37.5679085,30.6134081 C38.1698712,34.6961578 37.5679085,38.8784085 36.4342589,42.8476148 C35.8318946,44.9495729 34.8496392,47.2537427 32.7935691,48 C35.041371,47.4454322 37.2379848,46.7011826 39.3597415,45.7752705 C40.9146446,45.0434569 42.3739725,44.1174559 43.9457417,43.4221527 C46.2718088,42.4739962 48.7122196,41.8344996 51.2046331,41.5199989 C52.9547021,41.2471737 54.8047637,41.0385426 56.4484151,41.6997426 C57.4565528,42.1682605 58.3841491,42.7931862 59.1968026,43.5513435 L64.484758,47.9899697 C64.5768528,46.0603997 64.6376246,44.129626 64.6670735,42.1976487 C64.6927744,40.5185698 64.6863492,38.7909439 64.0667171,37.230223 C63.4551166,35.6887603 62.2941598,34.4325605 61.5175114,32.9677296 C59.5951662,29.3415609 60.221625,24.976758 60.2573653,20.8751513 C60.2943103,16.6283052 59.6104261,12.2996115 57.6427027,8.5350242 C55.6749793,4.77043687 52.3145897,1.61810151 48.2157014,0.49069126 C42.6916192,-1.02990833 36.8675596,1.23133159 31.7912349,3.88295236 C30.5963208,4.45084993 29.4824562,5.17526063 28.4790344,6.03706824 C27.4119511,7.12617996 26.5052264,8.36129752 25.7860644,9.7053643 L23.2709927,13.9140951" id="Path" fill="#090814"></path>
                <path d="M57.3589857,61.9082626 C57.3589857,61.9082626 48.3638062,94.8087251 47.4171616,97.093722 C46.7353473,98.734141 38.715187,107.462138 33.720835,112.059916 C30.6242957,113.16451 28.4797468,114 28.4797468,114 C28.4797468,114 28.2761895,107.664958 27.6745644,99.6474253 C31.5281726,95.5195865 35.581226,91.60965 35.581226,91.60965 C35.581226,91.60965 39.8423602,66.4770656 39.3686267,56.8802375 C38.8948932,47.2834093 48.8375397,45 48.8375397,45 C60.1993306,46.3721095 57.3589857,61.9082626 57.3589857,61.9082626 Z" id="Path" fill="#000000" opacity="0.1"></path>
                <path d="M47.8033702,43 C47.8033702,43 37.8231391,45.2880627 38.2982703,54.898244 C38.7734014,64.5084253 34.4963954,89.6802949 34.4963954,89.6802949 C34.4963954,89.6802949 18.338221,105.239996 19.7636144,107.070923 C21.1890079,108.90185 27.298014,112.500103 28.7584953,112.989039 C30.2189766,113.477975 45.4281272,97.4583565 46.3775639,95.1710888 C47.3270006,92.8838211 56.357795,59.9326974 56.357795,59.9326974 C56.357795,59.9326974 59.2089947,44.3729966 47.8033702,43 Z" id="Path" fill="#D4A64B"></path>
            </g>
        </g>
    </g>
</svg>