<?xml version="1.0" encoding="UTF-8"?>
<svg width="382px" height="252px" viewBox="0 0 382 252" version="1.1" xmlns="http://www.w3.org/2000/svg" xmlns:xlink="http://www.w3.org/1999/xlink">
    <title>2leader</title>
    <g id="Page-1" stroke="none" stroke-width="1" fill="none" fill-rule="evenodd">
        <g id="2leader" transform="translate(0, 14)">
            <g id="Group" transform="translate(0, 184)" fill="#E4EDF0" fill-rule="nonzero">
                <path d="M40.2418058,5.40512398 C39.607776,5.15577024 38.8003649,6.55994897 38.2558564,6.31000764 C37.7133009,6.06098034 38.3261231,4.5801413 37.8297631,2.64819587 C37.7402598,2.29978794 37.1761611,0.104285605 36.248298,0.0035814043 C34.4895397,-0.187297779 32.9709067,7.3155955 30.342696,7.2514468 C29.7659028,7.23738608 29.0743967,6.85737862 27.2809993,6.75355245 C26.5675428,6.71226059 26.1800545,6.7436227 25.9784803,6.99649014 C25.692459,7.3552789 26.0306486,7.84662067 26.3708212,9.06119038 C26.8809781,10.8826858 26.4787284,11.0568987 27.0083796,12.4163253 C27.4015652,13.4254921 27.8297613,13.859493 27.6121796,14.1743428 C27.3042917,14.6198937 26.2480446,14.0385609 25.7886541,14.5144591 C25.319888,15.000103 25.7889657,16.2590331 26.2790773,17.0953403 C27.1987988,18.6647459 28.4590045,19.2004718 29.5216677,19.9645939 C30.6765063,20.7950133 32.1379686,22.2834496 33.2056342,25.1566324 L41.7505,51 C40.1102767,45.6104408 35.8613669,30.6469373 34.5081533,24.9137006 C34.1175198,23.2586309 33.7719075,21.5411515 34.6673961,20.0737915 C35.5295336,18.6610482 37.4381471,17.65035 39.1908666,15.4888095 C39.395574,15.2363812 39.9563238,14.5264899 39.7271557,14.0526098 C39.537701,13.6608326 38.9809172,13.7872486 38.7985258,13.4241033 C38.5538713,12.9370052 39.3570708,12.3141788 39.9692101,11.067879 C40.400845,10.1890513 40.51808,9.44697881 40.618882,8.80882744 C40.6492736,8.61643476 41.085851,5.73703178 40.2418298,5.40510617 L40.2418118,5.40512398 L40.2418058,5.40512398 Z" id="Path"></path>
                <path d="M19.9769827,37.9571233 C19.6705087,38.1934728 20.1331882,38.9912303 19.8522592,39.1838782 C19.5723426,39.3758495 19.0155528,38.6505917 17.915255,38.3345133 C17.716838,38.2775166 16.4664094,37.9183243 16.1488044,38.3404664 C15.5467897,39.1405921 18.825541,42.0438609 18.0354435,43.303343 C17.8620563,43.5797498 17.4742744,43.8063595 16.9053951,44.6484477 C16.6790847,44.9834537 16.5828177,45.1809211 16.6499212,45.3518992 C16.7451398,45.5944926 17.0861331,45.5718317 17.7859724,45.7568527 C18.8355337,46.0343398 18.8057832,46.2802154 19.6320594,46.4149051 C20.2454508,46.5148912 20.5840058,46.4319038 20.6771935,46.6285521 C20.8090881,46.9068167 20.2163352,47.2526903 20.3195396,47.6133783 C20.4248768,47.981444 21.1838877,48.1165907 21.7396051,48.1195702 C22.7824627,48.1251672 23.4114662,47.6669681 24.0966339,47.3707196 C24.8412309,47.0487772 26.000293,46.7675924 27.731721,47.0774506 L43,50.3790966 C39.8567498,49.6216042 31.2178756,47.3702151 27.9871829,46.3739872 C27.0545451,46.0864042 26.1039886,45.7589063 25.6354321,44.9000747 C25.184309,44.0732342 25.2343146,42.8535483 24.6692036,41.3775999 C24.6032084,41.2052211 24.4133223,40.7277323 24.1124498,40.7024301 C23.8637036,40.6815141 23.7656813,40.988737 23.5331464,40.9726405 C23.2212446,40.9510479 23.1444419,40.3807904 22.703641,39.7235452 C22.3928117,39.2600934 22.0590134,38.9889749 21.7719557,38.7558245 C21.6854119,38.6855387 20.3849238,37.6424516 19.9769647,37.9570818 L19.9769887,37.9571115 L19.9769827,37.9571233 Z" id="Path"></path>
                <path d="M27.1722294,34.6290059 L25.7103178,33.1328656 L25.6981444,32.9439629 C25.6421179,32.0702396 25.4046046,31.3568346 24.9921045,30.8227705 C24.9265406,30.7378483 24.8565854,30.6562795 24.7854021,30.5731378 C24.5031192,30.243711 24.1521272,29.8342941 23.9897212,29.1682172 C23.8999003,28.7963292 23.7538134,27.8879793 24.3446971,27.5621315 C24.502598,27.4728824 24.6609122,27.4552724 24.8019069,27.4685912 C24.7990912,27.4404519 24.7966649,27.412004 24.7938073,27.381366 C24.7644521,27.0061306 24.8117439,26.7995169 24.8573283,26.6005064 C24.892267,26.4475181 24.9285595,26.2897223 24.9345863,25.9770449 C24.9372702,25.8399039 24.932807,25.7246404 24.9292065,25.6276576 C24.9187765,25.3339019 24.9218737,24.9717003 25.2402636,24.7344071 C25.5894523,24.4924903 25.9810084,24.633513 26.2403584,24.7267209 C26.7030858,24.8928321 26.9807678,25.0553465 27.1648786,25.1631909 C27.2320241,25.2027259 27.3078982,25.246932 27.3364806,25.2566243 C27.5683385,25.3317296 28.335521,24.5086403 28.6260594,24.2004855 C29.2766479,23.505747 29.8396082,22.9045785 30.4695463,23.1674825 C30.9204837,23.3552397 31.1227828,23.9049433 31.0855497,24.84624 C31.0737896,25.1393132 31.019153,25.3969941 30.9596759,25.6116916 C31.1316672,25.591203 31.3202473,25.617348 31.4936645,25.7523226 L31.4936645,25.7523226 C31.9037083,26.0723657 31.8693568,26.7337063 31.3931799,27.7192091 C31.2754297,27.9645862 31.1159113,28.2937044 30.7994146,28.6356013 C30.6502004,28.7964835 30.5008904,28.9220863 30.3714701,29.027426 C30.42785,29.105487 30.4740095,29.2014726 30.4932761,29.3218167 C30.5505606,29.6756792 30.3580685,30.0123352 29.9064062,30.3124595 C29.414731,30.6495132 28.9559336,30.8578956 28.551653,31.0422282 C28.1988996,31.2035555 27.8956607,31.3434089 27.7033903,31.5119773 C27.3508466,31.8296879 27.2934902,32.3495547 27.2549031,32.9964488 L27.1722474,34.6290059 L27.1722354,34.6290059 L27.1722294,34.6290059 Z" id="Path"></path>
                <path d="M20.4297533,24.2200186 L19.3397658,26.0005011 L19.1584167,26.0600797 C18.3195596,26.3353885 17.6832832,26.7439566 17.2664817,27.2747325 C17.2001989,27.3591087 17.1383014,27.4468324 17.0751818,27.5361467 C16.8251476,27.8902169 16.5144381,28.3304499 15.9053123,28.6550276 C15.5649959,28.8354487 14.7151936,29.2058351 14.2471703,28.7222329 C14.1199905,28.5935497 14.0626341,28.4463009 14.0398808,28.3077948 C14.0131197,28.3176415 13.9859631,28.3271795 13.9567757,28.3376909 C13.5978578,28.4609908 13.3841282,28.4680894 13.1782645,28.4748853 C13.0200282,28.4802034 12.8567595,28.4854561 12.54995,28.5589826 C12.4153715,28.5911994 12.3039716,28.624716 12.2101908,28.6527603 C11.9260327,28.7372789 11.5716019,28.82616 11.259167,28.5812281 C10.934397,28.3079551 10.9727744,27.8969416 10.9979839,27.6247548 C11.0428014,27.1391762 11.1310227,26.8318405 11.1896252,26.6280521 C11.2111923,26.5536887 11.2351078,26.4697517 11.2373304,26.4399031 C11.2518462,26.1986629 10.2536385,25.6722198 9.87907846,25.471951 C9.03575224,25.0247025 8.30600658,24.6376914 8.4029146,23.9673114 C8.47185732,23.4875494 8.95724212,23.1542409 9.88572231,22.9511587 C10.1748468,22.8880962 10.4402955,22.875086 10.6650003,22.8776322 C10.6013715,22.7180083 10.5790496,22.5306488 10.6668695,22.3302316 L10.6668695,22.3302316 C10.8753391,21.8560962 11.5297439,21.72127 12.6127221,21.9276284 C12.8821607,21.9782269 13.2439602,22.0476224 13.6580479,22.2642014 C13.8529662,22.3663894 14.0134731,22.4776169 14.1491599,22.574932 C14.2110754,22.5010969 14.2930782,22.4325205 14.4057002,22.3835306 C14.7366588,22.2388755 15.1141963,22.3379534 15.5217719,22.6946589 C15.975573,23.0803523 16.2953946,23.4671735 16.5779112,23.8078478 C16.824902,24.1049866 17.0383501,24.3601154 17.2517203,24.5016069 C17.651346,24.7588665 18.1734488,24.6819747 18.8148473,24.5548644 L20.4297533,24.219977 L20.4297533,24.2200186 L20.4297533,24.2200186 Z" id="Path"></path>
                <path d="M15.8093807,20.0522049 L14.3474691,18.5560646 L14.3352957,18.3671619 C14.2792693,17.4934385 14.0417559,16.7800335 13.6292558,16.2459695 C13.563692,16.1610472 13.4937368,16.0794784 13.4225535,15.9963368 C13.1402705,15.6669099 12.7892785,15.2574931 12.6268725,14.5914161 C12.5370517,14.2195282 12.3909647,13.3111783 12.9818485,12.9853304 C13.1397493,12.8960814 13.2980636,12.8784713 13.4390583,12.8917901 C13.4362426,12.8636509 13.4338163,12.835203 13.4309587,12.804565 C13.4016035,12.4293295 13.4488953,12.2227159 13.4944797,12.0237053 C13.5294183,11.8707171 13.5657109,11.7129213 13.5717377,11.4002438 C13.5744216,11.2631028 13.5699584,11.1478393 13.5663579,11.0508566 C13.5559278,10.7571009 13.5590251,10.3948993 13.8774149,10.1576061 C14.2266037,9.91568929 14.6181598,10.056712 14.8775097,10.1499199 C15.3402371,10.3160311 15.6179191,10.4785455 15.80203,10.5863898 C15.8691754,10.6259249 15.9450496,10.670131 15.9736319,10.6798233 C16.2054899,10.7549286 16.9726724,9.93183924 17.2632107,9.6236845 C17.9137992,8.928946 18.4767596,8.32777747 19.1066977,8.5906815 C19.5576351,8.77843872 19.7599341,9.32814227 19.722701,10.269439 C19.710941,10.5625121 19.6563044,10.8201931 19.5968272,11.0348906 C19.7688186,11.014402 19.9573986,11.040547 20.1308158,11.1755216 L20.1308158,11.1755216 C20.5408597,11.4955647 20.5065081,12.1569053 20.0303312,13.1424081 C19.9125811,13.3877852 19.7530626,13.7169034 19.4365659,14.0588003 C19.2873518,14.2196825 19.1380418,14.3452853 19.0086214,14.4506249 C19.0650013,14.528686 19.1111608,14.6246716 19.1304274,14.7450157 C19.1877119,15.0988782 18.9952199,15.4355342 18.5435576,15.7356585 C18.0518824,16.0727122 17.593085,16.2810946 17.1888043,16.4654271 C16.836051,16.6267545 16.532812,16.7666079 16.3405416,16.9351763 C15.987998,17.2528869 15.9306416,17.7727537 15.8920545,18.4196477 L15.8093987,20.0522049 L15.8093867,20.0522049 L15.8093807,20.0522049 Z" id="Path"></path>
                <path d="M42.2831227,50.549867 L41.7689878,50.5998303 L41.3763174,50.2677504 L41.7689878,50.5998303 L41.400832,50.9547434 C41.365468,50.9224613 41.2769352,50.8538433 41.1396308,50.74553 C40.3879766,50.1515492 38.0995611,48.3446783 34.903861,45.1867258 C32.6731254,42.9822256 30.528059,40.6023432 28.5270665,38.1122127 C26.5230008,35.6181352 25.1547441,33.6160167 24.0547638,32.0070999 C23.2252825,30.7934264 22.4545354,29.6231934 21.704355,28.4826546 C19.6992768,25.436357 17.8049395,22.5591026 15.3035971,19.6829403 C14.7455253,19.0405749 13.5832401,17.7040467 11.6045516,16.8495003 C10.4568722,16.3539919 9.20441269,16.0926964 7.88236948,16.0740061 L7.89723878,15.050096 C9.35730522,15.0717479 10.7437381,15.3618653 12.0180821,15.9119606 C14.2119381,16.8594241 15.4784161,18.3157266 16.0869249,19.0154448 C18.632366,21.9424608 20.5446579,24.8476526 22.5689128,27.9234546 C23.3167867,29.0594291 24.0838494,30.2249139 24.9100298,31.4335364 C25.9997238,33.0276209 27.3562204,35.0121947 29.3346214,37.4741563 C31.3113868,39.9348358 33.430411,42.2854097 35.63272,44.4624355 C38.7883114,47.580384 41.0428546,49.3601425 41.7834797,49.944888 C42.1787021,50.2573518 42.2615257,50.3227469 42.2831227,50.5498967 L42.2831227,50.5498848 L42.2831227,50.549867 Z" id="Path"></path>
                <path d="M7.38628501,18.5077038 C7.35276021,18.5333562 7.31821696,18.5585218 7.28204419,18.5824055 C6.55699536,19.0778189 5.59062303,19.1581828 4.40970632,18.8219304 C3.85509123,18.6629949 3.39211221,18.3518844 2.46879614,17.7314203 C2.32621986,17.6359747 1.6119306,17.1447101 0.788577875,16.3467627 C0.25037772,15.8255427 0.0702747415,15.5732331 0.0189211597,15.2678561 C-0.0387707434,14.9281909 0.0404762446,14.5999036 0.188600056,14.3060351 C0.117812151,14.2364675 0.0639184477,14.1501861 0.034353594,14.0427631 C-0.0895851485,13.5985001 0.315318554,13.3594026 0.532325179,13.2274491 C0.643563316,13.1625347 0.783030346,13.0823429 0.913984376,12.9707771 C1.12069872,12.7962081 1.18672989,12.644674 1.28755592,12.4160226 C1.38389481,12.1971169 1.5036759,11.9249301 1.76350514,11.6263965 C2.27375198,11.0352586 2.91658236,10.8161096 3.12838294,10.743693 C4.2399136,10.3591035 5.20654353,10.706544 6.32565263,11.1090106 C6.54952477,11.1902233 7.34355227,11.5018027 8.18669277,12.1166936 C8.79499188,12.5602859 8.96912198,12.8310661 9.06634752,13.0571535 C9.26722677,13.5208308 9.20236382,13.9239622 8.98027096,14.8741381 C8.74931763,15.8677011 8.63295132,16.3657972 8.48298832,16.7292452 C8.1329129,17.5740696 7.91310255,18.1045902 7.38626704,18.507686 L7.38628501,18.5077038 L7.38628501,18.5077038 Z" id="Path"></path>
            </g>
            <g id="Group" transform="translate(41, 79)" fill="#E4EDF0" fill-rule="nonzero">
                <polygon id="Path" points="0.823377685 66.1613156 12.7612134 85.9696502 82.329971 81.8429128 63.8057412 57.9078409"></polygon>
                <path d="M21.6106711,158.806561 C21.2054548,158.806561 20.8524949,158.506729 20.7960139,158.093246 L0.00771522807,5.88959255 C-0.0539896201,5.43782602 0.261176628,5.02152968 0.711618429,4.95986926 C1.16186277,4.89458563 1.57712586,5.21375735 1.63903416,5.66552388 L22.4273329,157.869177 C22.4890377,158.320944 22.1738715,158.73724 21.7234297,158.7989 C21.6854386,158.804137 21.6478544,158.806561 21.6106711,158.806561 L21.6106711,158.806561 Z" id="Path"></path>
                <path d="M0.823377685,159 C0.368711328,159 7.99113324e-05,158.630445 7.99113324e-05,158.174654 L7.99113324e-05,5.80697874 C7.99113324e-05,5.3511811 0.368717312,4.98163246 0.823377685,4.98163246 C1.27803806,4.98163246 1.64667546,5.35118709 1.64667546,5.80697874 L1.64667546,158.174654 C1.64667546,158.630451 1.27803806,159 0.823377685,159 L0.823377685,159 Z" id="Path"></path>
                <path d="M105.176311,158.394289 C104.826367,158.394289 104.501752,158.168607 104.391201,157.816383 L55.1990937,1.07332501 C55.0626154,0.638486758 55.3036125,0.175034803 55.7373715,0.0380129735 C56.1709271,-0.0981990347 56.6334322,0.143193814 56.769713,0.577630158 L105.961821,157.320694 C106.098299,157.755532 105.857302,158.218984 105.423543,158.356006 C105.341332,158.3818 105.258121,158.394289 105.176311,158.394289 L105.176311,158.394289 Z" id="Path"></path>
                <path d="M90.1507074,158.587327 C89.7830753,158.587327 89.4482104,158.339078 89.3533374,157.965498 L55.186432,19.6287274 C55.0744752,19.1870387 55.3408018,18.7376896 55.7813943,18.6252504 C56.2233929,18.5136209 56.6702205,18.7800043 56.7823807,19.221693 L90.9492862,157.558463 C91.0612429,158.000152 90.7949164,158.449501 90.3543239,158.56194 C90.2861865,158.579271 90.2178456,158.587327 90.1507074,158.587327 Z" id="Path"></path>
                <polygon id="Path" points="0.823377685 8.23427228 57.8368263 7.35530982 68.3338849 67.3993351 1.64667546 67.3993351"></polygon>
            </g>
            <rect id="uuid-9b30b827-6513-40a8-b334-b5fbd730ae9a" fill="#E6E6E6" fill-rule="nonzero" x="0" y="237" width="366" height="1"></rect>
            <g id="Group" transform="translate(34, 16)" fill-rule="nonzero">
                <path d="M50.9032138,5.87874441 C52.6306843,6.84888132 55.4185917,3.01163654 56.0504103,4.88859765 C56.6822288,6.76555877 55.1519865,14.3389884 54.3625051,16.1553459 C53.9700891,17.0581753 53.4153786,17.8839016 53.0303408,18.7899005 C52.6453029,19.6958995 52.4388236,20.7376078 52.7791679,21.6613022 C53.3714571,23.2687882 55.3261949,23.9226965 56.2953898,25.3355678 C57.4242044,26.9811119 56.9682876,29.197487 56.4405823,31.1216381 C55.9857366,32.7801294 55.5010375,34.4536311 54.6254841,35.9340252 C53.7499307,37.4144193 52.4299136,38.7034341 50.7804787,39.1932389 C48.6803928,39.8168633 46.4358683,39.0757393 44.4113227,38.2390214 C42.4648785,37.4345847 40.5392762,36.5226474 38.8837736,35.2211818 C37.2282711,33.9197222 35.8469433,32.1922429 35.2682376,30.1682159 C34.5423287,27.629333 35.1487816,24.8508581 36.405639,22.5282622 C37.6624964,20.2056663 39.5217316,18.2707268 41.4294542,16.4439159 C44.6424555,13.367189 48.0617088,10.5056248 51.6566843,7.88477086" id="Path" fill="#2F2E41"></path>
                <path d="M61.6250524,97.0224084 L107.722985,114.473134 C107.722985,114.473134 111.564477,118.312292 112.262932,124.943572 C112.961387,131.574846 125.882776,169.268419 125.882776,169.268419 L114.707521,173.456595 C114.707521,173.456595 95.8492756,144.488389 96.896955,132.621895 C96.896955,132.621895 94.8015963,127.026672 93.753917,126.857659 C92.7062376,126.688645 76.9910298,118.66131 66.863455,119.708359 C56.7358802,120.755402 30.1946426,123.896536 29.4961877,111.681024 C28.7977329,99.465512 34.9229505,99.465512 34.9229505,99.465512 L61.6250524,97.0224084 L61.6250524,97.0224084 Z" id="Path" fill="#2F2E41"></path>
                <path d="M123.438192,166.127291 C123.438192,166.127291 126.58123,165.080248 128.676595,167.174333 C130.771954,169.268419 130.771954,171.013492 130.771954,171.013492 C130.771954,171.013492 147.185611,170.664479 147.884065,172.758565 C148.58252,174.85265 146.137931,183.229003 140.201074,183.578016 C134.264216,183.927028 114.009067,188.115205 114.009067,184.276046 C114.009067,180.436888 114.358291,171.711522 115.755201,171.711522 C117.152111,171.711522 123.438192,166.127291 123.438192,166.127291 L123.438192,166.127291 Z" id="Path" fill="#2F2E41"></path>
                <path d="M65.6069148,108.122691 L99.2049623,144.171383 C99.2049623,144.171383 100.947967,149.313747 98.6356811,155.568416 C96.3233953,161.823085 91.2054599,201.337685 91.2054599,201.337685 L79.3299258,200.146693 C79.3299258,200.146693 75.258467,165.827573 81.4561971,155.651882 C81.4561971,155.651882 82.0569235,149.707868 81.1924762,149.09264 C80.3280288,148.477412 69.795071,134.324772 60.2508035,130.781162 C50.706536,127.237559 25.5179875,118.306952 30.3048116,107.045508 C35.0916357,95.7840641 40.5834491,98.4950342 40.5834491,98.4950342 L65.6069148,108.122685 L65.6069148,108.122691 Z" id="Path" fill="#2F2E41"></path>
                <path d="M90.4055845,197.439424 C90.4055845,197.439424 93.6875798,197.891739 94.6383085,200.696665 C95.5890373,203.50159 94.8157422,205.06621 94.8157422,205.06621 C94.8157422,205.06621 109.686734,212.017827 109.38501,214.204492 C109.083285,216.391158 103.179686,222.819367 97.7020962,220.504689 C92.2245064,218.190011 72.2080234,212.980339 73.9092666,209.538184 C75.6105098,206.096029 79.7900912,198.427514 81.0425444,199.045774 C82.2949976,199.664034 90.4055785,197.439424 90.4055785,197.439424 L90.4055845,197.439424 Z" id="Path" fill="#2F2E41"></path>
                <path d="M34.9092056,34.0252732 L46.0844597,41.3545839 L58.6566236,60.5503821 C58.6566236,60.5503821 61.4504371,80.7932291 60.4027578,81.8402717 C59.3550785,82.8873144 59.7043029,83.9343571 59.7043029,86.0284484 C59.7043029,88.1225337 62.269814,88.3451359 60.637834,90.153414 C59.005854,91.9616922 57.6364401,92.3381896 60.0672783,93.0224774 C62.4981165,93.7067653 65.3221784,93.0389649 63.9101475,95.1179382 C62.4981165,97.1969115 63.5457958,97.894942 62.8473409,98.5929664 C62.148886,99.2909969 33.8761748,129.132592 28.6377721,117.615111 C23.3993695,106.097629 23.0354906,61.946437 23.0354906,61.946437 L26.8092341,47.5636598 L34.9091996,34.0252732 L34.9092056,34.0252732 Z" id="Path" fill="#CCCCCC"></path>
                <g transform="translate(0, 52.5566)">
                    <path d="M0.47695916,63.6947643 C-0.712142874,67.7133775 0.398750021,71.583974 2.95790024,72.3398452 C5.51705045,73.0957165 8.5548023,70.450816 9.74379064,66.4306061 C10.2407807,64.8312114 10.3472935,63.136121 10.0544012,61.4871562 L14.8775175,44.3965306 L6.80426995,42.3055072 L2.9066544,59.3758358 C1.76324517,60.600898 0.930093454,62.0818602 0.47695916,63.6947583 L0.47695916,63.6947643 Z" id="uuid-d4ebd0a3-ba64-4a91-a7b4-f6dfa075657d-79" fill="#FFB6B6"></path>
                    <path d="M46.4566742,5.73998599 C46.4566742,5.73998599 33.4405074,-4.19061131 28.4856922,2.07207143 C23.530877,8.33475416 5.38023532,36.1372762 5.38023532,36.1372762 L4.17699939,46.7325043 L14.4710035,49.002845 L31.1090433,24.5010454 L46.4566742,5.73998599 L46.4566742,5.73998599 Z" id="Path" fill="#CCCCCC"></path>
                </g>
                <g transform="translate(41.4262, 20.3107)">
                    <path d="M68.284692,9.77907639 C71.2695884,6.83582224 72.1695261,2.91088336 70.2949661,1.01273429 C68.4204061,-0.885408805 64.4817891,-0.0378546611 61.4962286,2.90685268 C60.2874755,4.06679015 59.3742477,5.49916299 58.8329591,7.08413337 L46.3434264,19.7144459 L52.3989919,25.445522 L64.0685493,12.385811 C65.6620769,11.8658778 67.1078031,10.9720247 68.284692,9.77907639 L68.284692,9.77907639 Z" id="uuid-2985f50f-051f-4f07-b03f-e61c1365f091-80" fill="#FFB6B6"></path>
                    <path d="M0,38.2955363 C0,38.2955363 6.5900923,53.2773592 13.9569384,50.1891442 C21.3237844,47.1009353 50.6616838,31.5330378 50.6616838,31.5330378 L56.8403614,22.8396366 L48.9275593,15.8786184 L22.510457,29.2879756 L0,38.2955303 L0,38.2955363 Z" id="Path" fill="#CCCCCC"></path>
                </g>
                <ellipse id="Oval" fill="#FFB6B6" cx="46.5882355" cy="18.5205749" rx="12.534304" ry="12.5266871"></ellipse>
                <path d="M32.4584232,38.1390618 C35.3839715,42.3097583 36.8800818,47.462881 36.6426001,52.5507953 C39.9595831,50.9449838 42.1982793,47.5522496 42.960229,43.9483952 C43.7221787,40.3445409 43.1408939,36.5605082 41.9164931,33.0862754 C41.9042501,33.0515302 41.8919413,33.016815 41.8795786,32.9821237 C40.0205109,27.7673567 41.7479216,21.939066 46.2381254,18.6974043 C49.2668835,16.5108227 51.8936813,13.7676193 53.9097956,10.6231603 C55.0479809,8.84797668 56.0153927,6.62111826 55.1651211,4.69159092 C54.3816235,2.9136086 52.3575806,2.08260175 50.4949525,1.52657188 C46.2417576,0.256909153 41.7226876,-0.465550529 37.3572055,0.337857553 C32.9917233,1.14126564 28.7892358,3.65021751 26.7260464,7.5780867 C24.662857,11.5059559 25.2033378,16.8665149 28.552149,19.7783609 C27.4959426,20.1196466 26.7486415,21.238482 26.8383516,22.3442206 C26.9280617,23.4499592 27.845957,24.4338626 28.9433802,24.6006333 C28.2273866,24.5752652 27.8047401,25.5176957 28.0600657,26.1866921 C28.3153973,26.8556885 28.973868,27.2712488 29.6020244,27.6155964 C30.49678,28.1060949 31.4886179,28.6189954 31.4924416,29.9034652 C31.4939735,30.4184946 31.3102269,30.9183342 31.0099804,31.3369264 C30.2823781,32.351311 29.1076433,32.8081349 27.9768181,33.237019 C30.3685876,33.9410237 32.2758135,36.077473 32.7039652,38.5322919" id="Path" fill="#2F2E41"></path>
            </g>
            <g id="Group" transform="translate(131, -14)" fill-rule="nonzero">
                <circle id="Oval" fill="#5991A7" cx="37.5" cy="37.5" r="37.5"></circle>
                <g transform="translate(21.8724, 15.7728)" fill="#FFFFFF">
                    <polygon id="Rectangle" transform="translate(13.7546, 32.8362) rotate(-80.4292) translate(-13.7546, -32.8362)" points="2.98724129 30.9490556 24.5220505 30.9490556 24.5220505 34.723407 2.98724129 34.723407"></polygon>
                    <polygon id="Path" points="27.5646933 34.995174 14.7696319 26.8159718 0 30.3474067 19.2911583 0"></polygon>
                </g>
            </g>
            <g id="Group" transform="translate(344, 180)" fill="#E4EDF0" fill-rule="nonzero">
                <path d="M2.43745748,4.76922179 C2.99776069,4.54920608 3.71129063,5.78818459 4.19248275,5.56764841 C4.67195125,5.34791986 4.13038408,4.04129208 4.56903002,2.33664148 C4.64812902,2.02922253 5.14662991,0.0920110792 5.96660692,0.00316007874 C7.52085778,-0.165263178 8.86290995,6.454938 11.1855139,6.39833228 C11.6952395,6.38592473 12.3063381,6.05062168 13.8912028,5.95901876 C14.5216966,5.92258578 14.8641344,5.95026049 15.0422659,6.17337509 C15.2950271,6.48995314 14.9961636,6.92348764 14.6955463,7.99517356 C14.244708,9.60237043 14.6001848,9.75608888 14.1321224,10.9555894 C13.7846529,11.8460317 13.406249,12.2289728 13.5985323,12.5067787 C13.8706222,12.8999139 14.8040436,12.3869687 15.2100194,12.8068812 C15.6242807,13.2353904 15.2097473,14.3462074 14.7766229,15.0841278 C13.9638488,16.468892 12.8501792,16.9415935 11.9110729,17.6158249 C10.890521,18.3485466 9.59899208,19.6618747 8.65547693,22.1970356 L1.10419879,45 C2.55370198,40.2445092 6.30854876,27.0414193 7.50441385,21.9826793 C7.84962754,20.5223211 8.15505285,19.0069006 7.36368791,17.7121719 C6.60179988,16.4656316 4.91512064,15.5738432 3.36619789,13.6666038 C3.18529045,13.443872 2.68974694,12.8175 2.89226916,12.3993702 C3.05969003,12.0536817 3.55173793,12.16523 3.71291748,11.8448113 C3.92912584,11.4150218 3.21932135,10.8654641 2.67835895,9.76579238 C2.29691297,8.99035622 2.19330834,8.3355856 2.1042305,7.77250764 C2.07737228,7.60275031 1.6915598,5.06209747 2.43743934,4.76922179 L2.43745748,4.76923375 L2.43745748,4.76922179 Z" id="Path"></path>
                <path d="M20.3459205,33.491564 C20.6167586,33.7001054 20.2078798,34.4040097 20.4561414,34.5739944 C20.703508,34.7433808 21.1955559,34.1034466 22.1679129,33.8245518 C22.3432625,33.7742576 23.4482898,33.4573266 23.7289615,33.8298044 C24.2609732,34.5357966 21.3634727,37.0975075 22.0617017,38.2088091 C22.2149284,38.4526947 22.5576202,38.6526513 23.0603485,39.3956687 C23.2603427,39.6912604 23.3454169,39.8654986 23.2861124,40.0163634 C23.2019635,40.2304146 22.9006265,40.2104214 22.2821617,40.3736758 C21.3546429,40.6185186 21.3809387,40.8354653 20.6507411,40.9543122 C20.108678,41.042535 19.8094879,40.9693101 19.7271352,41.1428244 C19.6105762,41.3883552 20.1344053,41.6935367 20.0431986,42.0117899 C19.9501111,42.3365519 19.2793571,42.4557996 18.7882587,42.4584318 C17.8666608,42.4633733 17.3108027,42.059075 16.7053043,41.7976848 C16.0472931,41.5136152 15.0230037,41.265512 13.4929017,41.5389149 L0,44.4521354 C2.77776037,43.7837607 10.4121109,41.7972361 13.2671438,40.9182142 C14.0913362,40.6644636 14.9313616,40.3754945 15.3454354,39.6177005 C15.7440994,38.8881316 15.6999143,37.8119409 16.1993163,36.5096384 C16.2576351,36.3575352 16.425443,35.9362228 16.691334,35.9138964 C16.9111589,35.8954406 16.9977813,36.1665223 17.203273,36.1523141 C17.4789069,36.133266 17.5467752,35.6300901 17.9363252,35.0501716 C18.2110096,34.6412428 18.5059964,34.4020235 18.7596769,34.1962998 C18.8361572,34.13428 19.9854301,33.2139136 20.3459508,33.4915281 L20.3459326,33.491552 L20.3459205,33.491564 Z" id="Path"></path>
                <path d="M13.9873203,30.5549942 L15.2792424,29.23487 L15.2900014,29.0681936 C15.3395086,28.2972563 15.5494091,27.6677853 15.9139394,27.1965496 C15.9718772,27.1216197 16.0337037,27.0496451 16.0966067,26.9762826 C16.3460658,26.6856145 16.6562447,26.3243596 16.7997708,25.736646 C16.879148,25.4085099 17.0082501,24.6070203 16.4860721,24.3195109 C16.3465315,24.2407642 16.2066281,24.2252218 16.0820255,24.2369773 C16.0845112,24.2121502 16.0866581,24.187048 16.0891861,24.1600134 C16.1151251,23.828922 16.0733349,23.6466135 16.0330566,23.4710233 C16.0021766,23.3360358 15.9701112,23.1968008 15.9647831,22.9209093 C15.9624124,22.7999027 15.9663556,22.6982015 15.9695367,22.6126229 C15.9787535,22.3534282 15.9760139,22.033835 15.6946467,21.8244621 C15.3860644,21.6110031 15.0400343,21.7354376 14.8108413,21.817678 C14.4019202,21.9642415 14.1565253,22.1076402 13.9938277,22.2027967 C13.9344929,22.2376802 13.8674411,22.2766857 13.8421795,22.2852405 C13.6372805,22.3515079 12.9593055,21.6252532 12.7025527,21.3533579 C12.1276139,20.7403506 11.6301169,20.2099128 11.0734243,20.4418874 C10.6749235,20.6075587 10.4961449,21.092584 10.5290449,21.9231422 C10.539441,22.1817326 10.5877205,22.4091007 10.6402818,22.5985402 C10.4882888,22.5804613 10.3216421,22.6035296 10.1683851,22.7226277 L10.1683851,22.7226277 C9.8060199,23.0050162 9.83637979,23.5885541 10.2571908,24.4581177 C10.361249,24.6746277 10.5022169,24.9650267 10.7819149,25.2667025 C10.9137748,25.4086535 11.0457254,25.519484 11.1600951,25.6124269 C11.1102674,25.6813026 11.0694811,25.7660018 11.0524566,25.8721839 C11.0018306,26.1844187 11.1719427,26.4814641 11.5710845,26.7462763 C12.0055877,27.0436747 12.4110374,27.2275386 12.7683103,27.3901888 C13.0800435,27.5325346 13.3480269,27.6559341 13.5179395,27.8046752 C13.8294912,28.0850117 13.8801777,28.5437143 13.9142812,29.1145036 L13.9873263,30.5549942 L13.9873324,30.5549942 L13.9873203,30.5549942 Z" id="Path"></path>
                <path d="M19.9458111,21.3705933 L20.909042,22.9416085 L21.0693023,22.994176 C21.8106158,23.2370925 22.3729087,23.5975935 22.7412431,24.0659278 C22.7998219,24.1403791 22.8545181,24.2177857 22.9103029,24.2965862 C23.1312648,24.6090005 23.4058404,24.9974395 23.9441417,25.2838362 C24.2448861,25.4430285 24.995876,25.7698425 25.409478,25.343134 C25.5218701,25.2295935 25.5725566,25.0996612 25.5926655,24.9774582 C25.6163123,24.9861446 25.640316,24.9945619 25.6661098,25.0038347 C25.9832981,25.1126311 26.1721704,25.1188887 26.3540999,25.1248891 C26.4939369,25.1295793 26.6382249,25.1342157 26.9093533,25.1990951 C27.028283,25.2275236 27.1267288,25.2570947 27.2096077,25.281844 C27.4607239,25.356421 27.7739387,25.4348446 28.0500504,25.2187234 C28.3370542,24.9776017 28.3031442,24.614941 28.2808642,24.3747765 C28.2412572,23.9463211 28.1632952,23.6751497 28.111508,23.4953359 C28.0924454,23.4297206 28.0713144,23.3556642 28.0693489,23.3293235 C28.0565216,23.1164628 28.9386577,22.6519573 29.2696652,22.4752484 C30.0149278,22.0806176 30.6598214,21.7391407 30.5741787,21.1476283 C30.5132533,20.7243058 30.084308,20.4302157 29.2637928,20.251024 C29.0082919,20.1953815 28.7737044,20.1839012 28.5751313,20.1861506 C28.6313637,20.0453063 28.6510855,19.879988 28.5734803,19.7031474 L28.5734803,19.7031474 C28.3892526,19.2847903 27.8109391,19.1658298 26.853889,19.3479109 C26.6157816,19.3925578 26.2960472,19.4537879 25.9301138,19.6448906 C25.7578608,19.7350577 25.616022,19.8331994 25.4961065,19.9190652 C25.4413922,19.8539165 25.3689216,19.7934103 25.2693992,19.7501813 C24.9769222,19.6225462 24.64329,19.7099614 24.283102,20.0247088 C23.8820733,20.3650252 23.5994361,20.7063405 23.3497653,21.0069336 C23.1314946,21.2691134 22.9428642,21.4942261 22.7543063,21.6190734 C22.4011458,21.8460706 21.9397542,21.7782239 21.3729375,21.6660654 L19.9458111,21.3705754 L19.9458111,21.3706113 L19.9458111,21.3705933 Z" id="Path"></path>
                <path d="M24.0289136,17.6931119 L25.3208356,16.3729878 L25.3315947,16.2063114 C25.3811018,15.435374 25.5910024,14.8059031 25.9555327,14.3346673 C26.0134705,14.2597374 26.075297,14.1877629 26.1382,14.1144004 C26.3876591,13.8237322 26.697838,13.4624774 26.841364,12.8747638 C26.9207412,12.5466277 27.0498433,11.7451381 26.5276654,11.4576286 C26.3881248,11.3788819 26.2482213,11.3633396 26.1236188,11.3750951 C26.1261044,11.350268 26.1282514,11.3251657 26.1307794,11.2981311 C26.1567183,10.9670397 26.1149281,10.7847312 26.0746499,10.609141 C26.0437699,10.4741536 26.0117045,10.3349186 26.0063764,10.059027 C26.0040057,9.93802046 26.0079488,9.8363192 26.01113,9.75074059 C26.0203468,9.49154597 26.0176072,9.17195278 25.7362399,8.96257981 C25.4276577,8.74912085 25.0816275,8.87355532 24.8524346,8.95579574 C24.4435135,9.10235921 24.1981185,9.24575798 24.035421,9.34091445 C23.9760862,9.37579798 23.9090343,9.41480341 23.8837727,9.42335828 C23.6788737,9.48962562 23.0008987,8.76337099 22.744146,8.49147568 C22.1692072,7.87846838 21.6717102,7.34803054 21.1150175,7.58000512 C20.7165168,7.74567646 20.5377382,8.2307017 20.5706381,9.06125994 C20.5810343,9.31985033 20.6293138,9.54721844 20.6818751,9.73665796 C20.5298821,9.71857907 20.3632353,9.7416473 20.2099784,9.86074545 L20.2099784,9.86074545 C19.8476132,10.1431339 19.8779731,10.7266718 20.2987841,11.5962355 C20.4028423,11.8127455 20.5438102,12.1031444 20.8235082,12.4048202 C20.9553681,12.5467713 21.0873187,12.6576017 21.2016884,12.7505447 C21.1518606,12.8194204 21.1110744,12.9041196 21.0940499,13.0103016 C21.0434238,13.3225365 21.213536,13.6195819 21.6126778,13.884394 C22.047181,14.1817924 22.4526306,14.3656563 22.8099036,14.5283065 C23.1216368,14.6706524 23.3896202,14.7940519 23.5595328,14.942793 C23.8710845,15.2231295 23.921771,15.681832 23.9558745,16.2526213 L24.0289196,17.6931119 L24.0289257,17.6931119 L24.0289136,17.6931119 Z" id="Path"></path>
                <path d="M0.633499573,44.6028087 L1.08785767,44.6468932 L1.43486755,44.35388 L1.08785767,44.6468932 L1.41320438,44.9600494 C1.44445934,44.931567 1.52269351,44.8710189 1.64403024,44.7754496 C2.30828281,44.2513472 4.33060209,42.6570484 7.1547127,39.8706195 C9.12606123,37.9254694 11.0217036,35.8255778 12.7900219,33.6284 C14.5610556,31.4277465 15.7702138,29.6611718 16.7422926,28.2415359 C17.4753206,27.1706517 18.1564525,26.1380908 18.8193988,25.131733 C20.5913337,22.4438227 22.2653912,19.9050723 24.4758873,17.367279 C24.9690661,16.800486 25.996204,15.6212001 27.7448126,14.8671811 C28.7590445,14.4299674 29.865868,14.1994106 31.0341794,14.1829231 L31.0210376,13.279469 C29.7307484,13.2985768 28.5055274,13.5545589 27.379357,14.0399371 C25.4406,14.8759334 24.3213845,16.1609107 23.7836335,16.7783031 C21.5341775,19.3609646 19.8442385,21.9243626 18.0553638,24.6383084 C17.3944556,25.6406401 16.7165835,26.6690072 15.9864705,27.7354346 C15.0234875,29.1419809 13.8247195,30.8930731 12.0763649,33.0653939 C10.3294558,35.236584 8.45683134,37.3106195 6.51060531,39.2315169 C3.72194682,41.9826495 1.72955199,43.5530245 1.07504846,44.0689729 C0.725782745,44.344673 0.652586387,44.4023795 0.633499573,44.6028028 L0.633499573,44.6028028 L0.633499573,44.6028087 Z" id="Path"></path>
                <path d="M31.4725835,16.3303151 C31.5022116,16.3529466 31.5327347,16.3751534 31.5647033,16.3962295 C32.2054421,16.8333594 33.05945,16.9042691 34.1030439,16.6075707 C34.5931686,16.4673306 35.0023135,16.192821 35.8182687,15.6453572 C35.9442623,15.5611426 36.5755,15.1276679 37.3031152,14.4236021 C37.7787312,13.963703 37.9378969,13.741079 37.9832795,13.4716245 C38.0342623,13.1719169 37.9642289,12.8822538 37.8333307,12.6229575 C37.895889,12.5615718 37.9435153,12.4854454 37.9696417,12.3906598 C38.0791732,11.9986613 37.7213438,11.7876911 37.5295745,11.6712671 C37.4312678,11.6139913 37.3080199,11.5432312 37.1922955,11.4447903 C37.0096161,11.2907608 36.9512671,11.1570536 36.862159,10.9553022 C36.7770243,10.7621536 36.6711699,10.5219891 36.4415536,10.2585708 C35.9906367,9.73697503 35.42255,9.54361702 35.2353831,9.47971273 C34.2531016,9.14036557 33.3988699,9.44693502 32.4098875,9.80205186 C32.2120463,9.87370937 31.5103458,10.1486318 30.7652465,10.691184 C30.2276769,11.0825903 30.073797,11.3215105 29.9878761,11.5210005 C29.8103554,11.9301267 29.8676763,12.2858298 30.0639451,13.124219 C30.2680458,14.0008898 30.3708764,14.4403888 30.5034015,14.7610827 C30.81277,15.506517 31.0070188,15.974624 31.4725955,16.3302972 L31.4725835,16.3303151 L31.4725835,16.3303151 Z" id="Path"></path>
            </g>
            <g id="Group" transform="translate(201, 186)" fill-rule="nonzero">
                <polygon id="Path" fill="#A0616A" points="27.9545033 33.2702617 20.0644268 31.435574 23.35491 0 35 2.7075191"></polygon>
                <path d="M0.962922988,26.807276 L0.962922988,26.807276 C0.621483632,27.1656885 0.182768376,28.4766618 0.0714033833,28.9598675 L0.0714033833,28.9598675 C-0.270908749,30.4451281 0.650534595,31.9278665 2.12957474,32.2716413 L26.5647712,37.9510826 C27.5737296,38.1855962 28.5810078,37.5543259 28.8145436,36.5410379 L29.0499971,35.5194085 C29.0499971,35.5194085 30.9664463,32.7298466 29.3500122,28.3668222 C29.3500122,28.3668222 25.5739452,30.6112886 22.0217955,24.8955719 L21.2303127,22.0992308 L9.69444428,27.0520986 L4.070147,26.4570321 C2.83966981,26.3268309 1.81832037,25.9094621 0.963017984,26.807288 L0.962922988,26.8072641 L0.962922988,26.807276 Z" id="Path" fill="#2F2E41"></path>
            </g>
            <g id="Group" transform="translate(282, 180)" fill-rule="nonzero">
                <polygon id="Path" fill="#A0616A" points="30.2796567 22.9279744 24.3983132 28.5876521 0 8.35339896 8.68009837 0"></polygon>
                <path d="M10.0042533,42.1858925 L10.0042533,42.1858925 C10.1148173,42.6738314 10.966033,43.7728445 11.3075421,44.1353252 L11.3075421,44.1353252 C12.3572634,45.2494896 14.1018558,45.2926328 15.2042218,44.2316061 L33.4163844,26.7024467 C34.1683889,25.9786466 34.1975182,24.7756927 33.4813702,24.015579 L32.7593285,23.2492074 C32.7593285,23.2492074 31.4901519,20.0787151 26.9604913,19.0250294 C26.9604913,19.0250294 26.7495314,23.4669088 20.0243423,23.3007385 L17.2560563,22.4184519 L15.0239332,34.9315248 L11.4258692,39.3615624 C10.6386749,40.330755 9.72736696,40.9635393 10.0043248,42.1858203 L10.0042533,42.1858865 L10.0042533,42.1858925 Z" id="Path" fill="#2F2E41"></path>
            </g>
            <g id="Group" transform="translate(254, 86)" fill="#E4EDF0" fill-rule="nonzero">
                <polygon id="Path" points="92.2776013 57.8391379 81.803845 75.1558579 20.7671079 71.5482114 37.0194933 50.6238388"></polygon>
                <path d="M74.0396982,138.830893 C74.3952162,138.830893 74.7048919,138.568777 74.7544405,138.207308 L92.9932311,5.14877477 C93.0473675,4.75383649 92.7708562,4.38989925 92.375655,4.33599637 C91.9806337,4.27892451 91.6162938,4.55795184 91.5619775,4.95289012 L73.3231868,138.011423 C73.2690504,138.406362 73.5455618,138.770299 73.940763,138.824202 C73.9740952,138.828784 74.0070677,138.830893 74.0396922,138.830893 L74.0396982,138.830893 Z" id="Path"></path>
                <path d="M92.2776013,139 C92.6765028,139 92.99993,138.67693 92.99993,138.278469 L92.99993,5.07654684 C92.99993,4.67808612 92.6765028,4.35501634 92.2776013,4.35501634 C91.8786998,4.35501634 91.5552727,4.67808612 91.5552727,5.07654684 L91.5552727,138.278469 C91.5552727,138.67693 91.8786998,139 92.2776013,139 L92.2776013,139 Z" id="Path"></path>
                <path d="M0.722672565,138.470478 C1.02969747,138.470478 1.31450288,138.273186 1.41149504,137.965266 L44.5706088,0.938312273 C44.6903482,0.558170624 44.4789061,0.153012483 44.098344,0.0332316505 C43.7179558,-0.0858482888 43.3121755,0.125186428 43.19261,0.504974636 L0.0334962571,137.531928 C-0.0862431561,137.91207 0.12519892,138.317228 0.505761073,138.437009 C0.577888987,138.459558 0.650898484,138.470478 0.722672565,138.470478 L0.722672565,138.470478 Z" id="Path"></path>
                <path d="M13.9055166,138.639238 C14.2280622,138.639238 14.5218573,138.422212 14.605098,138.095626 L44.5817216,17.1597101 C44.6799491,16.7735779 44.4462876,16.3807543 44.0597282,16.2824615 C43.6719335,16.1848697 43.2799108,16.4177459 43.1815093,16.8038781 L13.2048857,137.739794 C13.1066581,138.125926 13.3403197,138.51875 13.726879,138.617043 C13.7866588,138.632193 13.8466184,138.639238 13.9055226,138.639238 L13.9055166,138.639238 Z" id="Path"></path>
                <polygon id="Path" points="92.2776013 7.19852164 42.2563745 6.43011517 33.0466888 58.9214306 91.5552727 58.9214306"></polygon>
            </g>
            <path d="M326.650776,127.899194 C326.650776,127.899194 335.352944,149.337617 319.260044,154.227189 C303.167144,159.11676 279.974798,166.024808 279.974798,166.024808 L306.639289,191.656613 L293.493453,200 C293.493453,200 245,167.010869 245,159.116772 C245,151.222676 284.741522,130.769783 284.741522,130.769783 L306.639283,123 L326.650764,127.8992 L326.650776,127.899194 Z" id="Path" fill="#2F2E41" fill-rule="nonzero"></path>
            <path d="M276.265954,123 C276.265954,123 231.484764,126.293955 228.110325,135.014447 C224.735887,143.734939 218,188.81717 218,188.81717 L241.53802,193 L248.561328,154.572777 L313,131.600797 L276.265954,123 L276.265954,123 Z" id="Path" fill="#2F2E41" fill-rule="nonzero"></path>
            <path d="M252,74.3190734 L263.803094,60 L276.839349,68.4849965 C276.839349,68.4849965 325.968846,100.159468 328,129.880908 C328,129.880908 308.233508,148.748988 282.869178,125.051084 L264.489113,120.213725 L252,74.3190734 L252,74.3190734 Z" id="Path" fill="#CCCCCC" fill-rule="nonzero"></path>
            <g id="Group" transform="translate(191, 75)" fill-rule="nonzero">
                <path d="M9.02445414,60.2650116 C5.09396188,61.7469187 1.14447772,60.9172752 0.202994741,58.4119497 C-0.738488241,55.9066242 1.68455528,52.6743594 5.61504755,51.1924523 C7.33555937,50.5437691 9.05967581,50.3381078 10.5335818,50.5219312 L27.2668273,44.4519554 L29.943403,52.3779768 L13.1636045,57.5205295 C12.1765374,58.6322039 10.74496,59.6163285 9.02444813,60.2650116 L9.02445414,60.2650116 Z" id="Path" fill="#A0616A"></path>
                <polygon id="Path" fill="#CCCCCC" points="65.5269067 1.25863307 61.5771578 0 50.2810349 34.5700415 11.6543084 48.7628876 14.1209081 58.2923443 58.0461332 47.7928977 75 31.2329569"></polygon>
            </g>
            <circle id="Oval" fill="#A0616A" fill-rule="nonzero" cx="249" cy="50" r="14"></circle>
            <path d="M262.762377,39.1380081 C262.762377,39.1380081 259.11311,27.6006316 247.010573,29.1416969 C247.010573,29.1416969 244.564026,31.4776655 242.497363,31.1142083 C240.4307,30.7507511 236.555747,36.7872808 235.520244,36.7745336 C234.48474,36.7617864 232.74589,37.7544157 234.471721,37.775663 C236.197552,37.7969103 238.078286,36.975032 235.673297,38.2974779 C233.268308,39.6199239 231.671329,40.7833042 233.388479,41.4804712 C235.105629,42.1776382 235.4339,40.3226062 233.205044,42.3232428 C230.976188,44.3238795 232.331275,43.1575203 233.353754,44.1841441 C234.376232,45.2107679 232.768566,50.8054578 232.768566,50.8054578 C232.768566,50.8054578 232.633038,46.5413659 238.500872,46.6136078 C244.368705,46.6858498 248.14818,48.0844308 249.895712,46.4158818 C251.643243,44.7473328 254.208835,47.3233332 255.823067,48.9441083 C257.4373,50.5648833 258.822305,50.2439266 258.822305,50.2439266 L257.341817,58 C257.341817,58 263.388591,57.5794017 263.772975,54.5300386 C264.157358,51.4806756 262.645187,48.2629092 263.693704,47.2617798 C264.74222,46.2606504 262.762371,39.1379963 262.762371,39.1379963 L262.762377,39.1380081 Z" id="Path" fill="#2F2E41" fill-rule="nonzero"></path>
            <g id="Group" transform="translate(160, 66)" fill-rule="nonzero">
                <circle id="Oval" fill="#5991A7" cx="33" cy="33" r="33"></circle>
                <g transform="translate(22.4954, 13.8801)" fill="#FFFFFF">
                    <polygon id="Rectangle" transform="translate(12.1528, 28.8959) rotate(-9.5708) translate(-12.1528, -28.8959)" points="10.4921173 19.4205755 13.813545 19.4205755 13.813545 38.3712082 10.4921173 38.3712082"></polygon>
                    <polygon id="Path" points="0 30.7957505 11.2596539 23.5980542 24.2569246 26.7057146 7.28071229 0"></polygon>
                </g>
            </g>
            <g id="Group" transform="translate(207, 75)" fill-rule="nonzero">
                <path d="M7.56173151,41.1396996 C3.38692588,41.1419635 0.00143614217,38.9801283 0,36.3110806 C-0.00143522863,33.642033 3.38172152,31.4765198 7.55652715,31.4742463 C9.38398118,31.4732564 11.0601379,31.8870098 12.367479,32.5763804 L30.0574381,32.7897297 L29.7809909,41.127624 L12.3714929,40.0323309 C11.0648936,40.7231198 9.38918554,41.1387002 7.56173151,41.1396996 L7.56173151,41.1396996 Z" id="Path" fill="#A0616A"></path>
                <path d="M74.8026732,0 L74.8026852,0 C83.3478009,9.38367247 84.3972929,23.4212861 77.3432741,33.9820457 L63.1780901,47 L17.7582324,42.6703918 L18.7161038,31.9888766 L50.8168388,30.2540344 L74.8026612,0 L74.8026732,0 Z" id="Path" fill="#CCCCCC"></path>
            </g>
        </g>
    </g>
</svg>